SplineFontDB: 3.0
FontName: OpakSans
FullName: Opak Sans
FamilyName: Opak Sans
Weight: Regular
Copyright: Copyright (c) 2014, vernon adams
UComments: "2014-3-18: Created with FontForge (http://fontforge.org)" 
Version: 001.000
ItalicAngle: 0
UnderlinePosition: 0
UnderlineWidth: 0
Ascent: 800
Descent: 200
UFOAscent: 800
UFODescent: -200
LayerCount: 2
Layer: 0 0 "Back"  1
Layer: 1 0 "Fore"  0
FSType: 1
OS2Version: 0
OS2_WeightWidthSlopeOnly: 0
OS2_UseTypoMetrics: 0
CreationTime: 1395347522
ModificationTime: 1395349635
PfmFamily: 0
TTFWeight: 400
TTFWidth: 5
LineGap: 0
VLineGap: 0
OS2TypoAscent: 1116
OS2TypoAOffset: 0
OS2TypoDescent: -259
OS2TypoDOffset: 0
OS2TypoLinegap: 0
OS2WinAscent: 1116
OS2WinAOffset: 0
OS2WinDescent: 259
OS2WinDOffset: 0
HheadAscent: 0
HheadAOffset: 1
HheadDescent: 0
HheadDOffset: 1
OS2Vendor: 'NeWT'
MarkAttachClasses: 1
DEI: 91125
LangName: 1033 "" "" "" "" "" "Version 001.000" "" "" "" "" "" "" "" "Copyright (c) 2014, vernon adams, https://github.com/vernnobile/opakSansFont, vernnobile@gmail.com+AAoACgAA-This Font Software is licensed under the SIL Open Font License, Version 1.1.+AAoA-This license is copied below, and is also available with a FAQ at:+AAoA-http://scripts.sil.org/OFL" "http://scripts.sil.org/OFL" 
PickledData: "(dp1
S'public.glyphOrder'
p2
(S'A'
S'Aacute'
p3
S'Abreve'
p4
S'Acaron'
p5
S'Acircumflex'
p6
S'Adblgrave'
p7
S'Adieresis'
p8
S'Adotaccent'
p9
S'Agrave'
p10
S'Ainvertedbreve'
p11
S'Amacron'
p12
S'Aogonek'
p13
S'Aring'
p14
S'Aringacute'
p15
S'Atilde'
p16
S'AE'
p17
S'AEacute'
p18
S'AEmacron'
p19
S'B'
S'Bdotaccent'
p20
S'C'
S'Cacute'
p21
S'Ccaron'
p22
S'Ccedilla'
p23
S'Ccircumflex'
p24
S'Cdotaccent'
p25
S'D'
S'DZ'
p26
S'DZcaron'
p27
S'Eth'
p28
S'Dcaron'
p29
S'Dcroat'
p30
S'Ddotaccent'
p31
S'Dz'
p32
S'Dzcaron'
p33
S'E'
S'Eacute'
p34
S'Ebreve'
p35
S'Ecaron'
p36
S'uni0228'
p37
S'Ecircumflex'
p38
S'Edblgrave'
p39
S'Edieresis'
p40
S'Edotaccent'
p41
S'Egrave'
p42
S'Einvertedbreve'
p43
S'Emacron'
p44
S'Eogonek'
p45
S'Etilde'
p46

StartChar: A
Encoding: 65 65 0
Width: 636
VWidth: 0
Flags: HW
LayerCount: 2
Fore
SplineSet
566 0 m 1280
321 690 m 1280
19 0 m 257
 268 690 l 257
 371 690 l 257
 618 0 l 257
 521 0 l 257
 460 179 l 257
 175 179 l 257
 114 0 l 257
 19 0 l 257
203 260 m 257
 431 260 l 257
 319 585 l 257
 316 585 l 257
 203 260 l 257
EndSplineSet
EndChar

StartChar: AE
Encoding: 198 198 1
Width: 887
VWidth: 0
Flags: HW
LayerCount: 2
Fore
SplineSet
580 690 m 1280
9 0 m 257
 337 690 l 257
 832 690 l 257
 832 611 l 257
 520 611 l 257
 524 400 l 257
 794 400 l 257
 794 321 l 257
 525 321 l 257
 530 79 l 257
 845 79 l 257
 845 0 l 257
 439 0 l 257
 436 181 l 257
 194 181 l 257
 112 0 l 257
 9 0 l 257
232 265 m 257
 434 265 l 257
 428 599 l 257
 386 599 l 257
 232 265 l 257
EndSplineSet
EndChar

StartChar: B
Encoding: 66 66 18
Width: 628
VWidth: 0
Flags: HW
LayerCount: 2
Fore
SplineSet
311 690 m 1280
89 0 m 257
 89 690 l 257
 302 690 l 258
 457 690 537 642 537 521 c 256
 537 438 489 392 430 373 c 257
 516 359 573 302 573 199 c 256
 573 62 480 0 326 0 c 258
 89 0 l 257
181 79 m 257
 303 79 l 258
 439 79 479 114 479 201 c 256
 479 285 447 323 322 323 c 258
 181 323 l 257
 181 79 l 257
181 401 m 257
 303 401 l 258
 396 401 443 437 443 510 c 256
 443 584 398 612 298 612 c 258
 181 612 l 257
 181 401 l 257
EndSplineSet
EndChar

StartChar: C
Encoding: 67 67 20
Width: 640
VWidth: 0
Flags: HW
LayerCount: 2
Fore
SplineSet
348 0 m 1280
351 690 m 1280
348 -13 m 256
 162 -13 61 108 61 345 c 256
 61 581 161 703 345 703 c 256
 473 703 560 650 592 540 c 256
 593 537 594 535 595 532 c 257
 513 502 l 257
 487 586 436 624 345 624 c 256
 218 624 157 527 157 345 c 256
 157 164 217 66 346 66 c 256
 434 66 492 105 519 191 c 257
 601 162 l 257
 600 159 599 157 598 154 c 256
 560 44 480 -13 348 -13 c 256
EndSplineSet
EndChar

StartChar: D
Encoding: 68 68 26
Width: 641
VWidth: 0
Flags: HW
LayerCount: 2
Fore
SplineSet
135 351 m 1280
321 690 m 1280
177 79 m 257
 271 79 l 258
 429 79 493 153 494 322 c 257
 494 365 l 258
 494 534 431 611 271 611 c 258
 177 611 l 257
 177 79 l 257
85 0 m 257
 85 690 l 257
 274 690 l 258
 491 690 590 583 590 364 c 258
 590 320 l 257
 589 103 494 0 276 0 c 258
 85 0 l 257
EndSplineSet
EndChar

StartChar: uni0394
Encoding: 916 916 32
Width: 615
VWidth: 0
Flags: HW
LayerCount: 2
Fore
SplineSet
25 0 m 257
 25 43 l 257
 252 676 l 257
 366 676 l 257
 590 43 l 257
 590 0 l 257
 25 0 l 257
130 78 m 257
 479 78 l 257
 331 511 l 257
 305 595 l 257
 303 595 l 257
 278 510 l 257
 130 78 l 257
EndSplineSet
EndChar

StartChar: E
Encoding: 69 69 35
Width: 571
VWidth: 0
Flags: HW
LayerCount: 2
Fore
SplineSet
325 0 m 1280
435 0 m 1280
331 690 m 1280
89 0 m 257
 89 690 l 257
 523 690 l 257
 523 611 l 257
 181 611 l 257
 181 400 l 257
 477 400 l 257
 477 321 l 257
 181 321 l 257
 181 79 l 257
 525 79 l 257
 525 0 l 257
 89 0 l 257
EndSplineSet
EndChar

StartChar: Eng
Encoding: 330 330 46
Width: 691
VWidth: 0
Flags: HW
LayerCount: 2
Fore
SplineSet
513 690 m 257
 603 690 l 257
 603 -22 l 258
 603 -143 557 -193 447 -193 c 256
 414 -193 384 -188 355 -178 c 257
 376 -109 l 257
 400 -118 425 -123 450 -123 c 256
 506 -123 516 -86 516 0 c 257
 181 568 l 257
 179 568 l 257
 179 0 l 257
 89 0 l 257
 89 690 l 257
 206 690 l 257
 511 162 l 257
 513 162 l 257
 513 690 l 257
EndSplineSet
EndChar

StartChar: Euro
Encoding: 8364 8364 50
Width: 617
VWidth: 0
Flags: HW
LayerCount: 2
Fore
SplineSet
349 -14 m 256
 184 -14 90 73 68 247 c 257
 15 247 l 257
 34 305 l 257
 63 305 l 257
 63 373 l 257
 15 373 l 257
 33 431 l 257
 68 431 l 257
 91 603 179 690 344 690 c 256
 464 690 530 646 577 563 c 257
 503 516 l 257
 458 596 405 612 344 612 c 256
 236 612 181 544 163 431 c 257
 452 431 l 257
 434 373 l 257
 158 373 l 257
 158 305 l 257
 417 305 l 257
 399 247 l 257
 163 247 l 257
 181 125 238 64 346 64 c 256
 420 64 468 92 511 173 c 257
 583 128 l 257
 526 24 458 -14 349 -14 c 256
EndSplineSet
EndChar

StartChar: F
Encoding: 70 70 51
Width: 557
VWidth: 0
Flags: HW
LayerCount: 2
Fore
SplineSet
311 690 m 1280
89 0 m 257
 89 690 l 257
 522 690 l 257
 522 611 l 257
 181 611 l 257
 181 394 l 257
 474 394 l 257
 474 315 l 257
 181 315 l 257
 181 0 l 257
 89 0 l 257
EndSplineSet
EndChar

StartChar: G
Encoding: 71 71 53
Width: 680
VWidth: 0
Flags: HW
LayerCount: 2
Fore
SplineSet
358 0 m 1280
367 690 m 1280
358 -13 m 256
 168 -13 61 105 61 315 c 258
 61 378 l 257
 62 588 167 703 348 703 c 256
 471 703 564 653 596 547 c 256
 597 545 598 541 599 539 c 257
 518 510 l 257
 496 581 442 624 348 624 c 256
 222 624 158 534 157 379 c 257
 157 315 l 258
 157 153 230 66 358 66 c 256
 417 66 465 81 507 108 c 257
 507 269 l 257
 346 269 l 257
 346 348 l 257
 600 348 l 257
 600 69 l 257
 542 24 468 -13 358 -13 c 256
EndSplineSet
EndChar

StartChar: H
Encoding: 72 72 60
Width: 684
VWidth: 0
Flags: HW
LayerCount: 2
Fore
SplineSet
355 690 m 1280
89 0 m 257
 89 690 l 257
 181 690 l 257
 181 391 l 257
 504 391 l 257
 504 690 l 257
 597 690 l 257
 597 0 l 257
 504 0 l 257
 504 311 l 257
 181 311 l 257
 181 0 l 257
 89 0 l 257
EndSplineSet
EndChar

StartChar: Hbar
Encoding: 294 294 61
Width: 684
VWidth: 0
Flags: HW
LayerCount: 2
Fore
SplineSet
659 499 m 257
 23 499 l 257
 23 569 l 257
 659 569 l 257
 659 499 l 257
EndSplineSet
Refer: 60 72 N 1 0 0 1 0 0 2
EndChar

StartChar: I
Encoding: 73 73 63
Width: 416
VWidth: 0
Flags: HW
LayerCount: 2
Fore
SplineSet
211 0 m 1280
213 690 m 1280
254 69 m 257
 352 69 l 257
 352 0 l 257
 64 0 l 257
 64 69 l 257
 162 69 l 257
 162 621 l 257
 64 621 l 257
 64 690 l 257
 352 690 l 257
 352 621 l 257
 254 621 l 257
 254 69 l 257
EndSplineSet
EndChar

StartChar: J
Encoding: 74 74 77
Width: 480
VWidth: 0
Flags: HW
LayerCount: 2
Fore
SplineSet
331 690 m 1280
79 20 m 257
 105 92 l 257
 120 82 158 67 193 66 c 256
 266 63 301 103 301 212 c 258
 301 690 l 257
 393 690 l 257
 393 189 l 258
 393 59 321 -18 197 -13 c 256
 154 -11 109 -2 79 20 c 257
EndSplineSet
EndChar

StartChar: K
Encoding: 75 75 79
Width: 627
VWidth: 0
Flags: HW
LayerCount: 2
Fore
SplineSet
331 0 m 1280
321 690 m 1280
89 0 m 257
 89 690 l 257
 181 690 l 257
 181 333 l 257
 484 690 l 257
 594 690 l 257
 319 366 l 257
 610 0 l 257
 496 0 l 257
 253 308 l 257
 181 231 l 257
 181 0 l 257
 89 0 l 257
EndSplineSet
EndChar

StartChar: L
Encoding: 76 76 82
Width: 520
VWidth: 0
Flags: HW
LayerCount: 2
Fore
SplineSet
138 368 m 1280
297 0 m 1280
151 690 m 1280
89 0 m 257
 89 690 l 257
 181 690 l 257
 181 79 l 257
 499 79 l 257
 499 0 l 257
 89 0 l 257
EndSplineSet
EndChar

StartChar: Lslash
Encoding: 321 321 89
Width: 520
VWidth: 0
Flags: HW
LayerCount: 2
Fore
SplineSet
8 262 m 257
 8 339 l 257
 298 519 l 257
 298 442 l 257
 8 262 l 257
EndSplineSet
Refer: 82 76 N 1 0 0 1 0 0 2
EndChar

StartChar: M
Encoding: 77 77 90
Width: 818
VWidth: 0
Flags: HW
LayerCount: 2
Fore
SplineSet
418 690 m 1280
89 0 m 257
 89 690 l 257
 211 690 l 257
 409 272 l 257
 411 272 l 257
 610 690 l 257
 730 690 l 257
 730 0 l 257
 640 0 l 257
 640 281 l 257
 644 564 l 257
 642 565 l 257
 438 145 l 257
 379 145 l 257
 176 564 l 257
 175 564 l 257
 179 281 l 257
 179 0 l 257
 89 0 l 257
EndSplineSet
EndChar

StartChar: N
Encoding: 78 78 92
Width: 691
VWidth: 0
Flags: HW
LayerCount: 2
Fore
SplineSet
363 0 m 1280
361 690 m 1280
89 0 m 257
 89 690 l 257
 206 690 l 257
 511 152 l 257
 513 152 l 257
 513 690 l 257
 603 690 l 257
 603 0 l 257
 501 0 l 257
 181 568 l 257
 179 568 l 257
 179 0 l 257
 89 0 l 257
EndSplineSet
EndChar

StartChar: O
Encoding: 79 79 99
Width: 672
VWidth: 0
Flags: HW
LayerCount: 2
Fore
SplineSet
365 0 m 1280
334 690 m 1280
334 67 m 256
 459 67 520 156 520 320 c 258
 520 375 l 257
 519 534 458 623 334 623 c 256
 211 623 153 533 152 375 c 257
 152 320 l 258
 152 158 211 67 334 67 c 256
334 -13 m 256
 156 -13 57 107 57 320 c 258
 57 376 l 257
 58 584 156 703 334 703 c 256
 513 703 614 587 615 376 c 257
 615 320 l 258
 615 105 513 -13 334 -13 c 256
EndSplineSet
EndChar

StartChar: OE
Encoding: 338 338 100
Width: 1002
VWidth: 0
Flags: HW
LayerCount: 2
Fore
SplineSet
956 0 m 257
 520 0 l 257
 520 65 l 257
 480 14 419 -13 334 -13 c 256
 156 -13 57 107 57 320 c 258
 57 376 l 257
 58 584 156 703 334 703 c 256
 420 703 480 676 520 626 c 257
 520 690 l 257
 954 690 l 257
 954 611 l 257
 612 611 l 257
 612 400 l 257
 908 400 l 257
 908 321 l 257
 612 321 l 257
 612 79 l 257
 956 79 l 257
 956 0 l 257
152 320 m 258
 152 158 211 67 334 67 c 256
 459 67 520 156 520 320 c 258
 520 375 l 257
 519 534 458 623 334 623 c 256
 211 623 153 533 152 375 c 257
 152 320 l 258
EndSplineSet
EndChar

StartChar: uni03A9
Encoding: 937 937 111
Width: 666
VWidth: 0
Flags: HW
LayerCount: 2
Fore
SplineSet
73 0 m 257
 73 82 l 257
 215 82 l 257
 215 107 l 257
 108 136 58 224 58 396 c 256
 58 593 175 690 328 690 c 256
 520 690 608 591 608 396 c 256
 608 223 556 134 451 107 c 257
 451 82 l 257
 593 82 l 257
 593 0 l 257
 371 0 l 257
 371 157 l 257
 500 171 513 272 513 389 c 256
 513 545 456 610 328 610 c 256
 211 610 153 540 153 389 c 256
 153 235 186 181 295 157 c 257
 295 0 l 257
 73 0 l 257
EndSplineSet
EndChar

StartChar: P
Encoding: 80 80 116
Width: 602
VWidth: 0
Flags: HW
LayerCount: 2
Fore
SplineSet
321 690 m 1280
89 0 m 257
 89 690 l 257
 318 690 l 258
 476 690 557 619 557 475 c 256
 557 322 475 252 315 252 c 258
 181 252 l 257
 181 0 l 257
 89 0 l 257
181 331 m 257
 304 331 l 258
 425 331 462 371 462 474 c 256
 462 565 415 611 311 611 c 258
 181 611 l 257
 181 331 l 257
EndSplineSet
EndChar

StartChar: Q
Encoding: 81 81 118
Width: 672
VWidth: 0
Flags: HW
LayerCount: 2
Fore
SplineSet
452 -140 m 257
 310 174 l 257
 388 190 l 257
 539 -140 l 257
 452 -140 l 257
EndSplineSet
Refer: 99 79 N 1 0 0 1 0 0 2
EndChar

StartChar: R
Encoding: 82 82 119
Width: 627
VWidth: 0
Flags: HW
LayerCount: 2
Fore
SplineSet
325 0 m 1280
321 690 m 1280
89 0 m 257
 89 690 l 257
 318 690 l 258
 477 690 555 629 555 495 c 256
 555 348 455 289 316 289 c 258
 181 289 l 257
 181 0 l 257
 89 0 l 257
181 367 m 257
 310 367 l 258
 420 367 460 400 460 491 c 256
 460 579 414 612 317 612 c 258
 181 612 l 257
 181 367 l 257
465 -0 m 257
 323 314 l 257
 415 330 l 257
 566 0 l 257
 465 -0 l 257
EndSplineSet
EndChar

StartChar: S
Encoding: 83 83 125
Width: 609
VWidth: 0
Flags: HW
LayerCount: 2
Fore
SplineSet
325 0 m 1280
310 690 m 1280
306 -13 m 256
 180 -13 83 44 52 144 c 256
 51 147 49 150 48 153 c 257
 129 182 l 257
 152 104 219 66 305 66 c 256
 396 66 461 105 461 179 c 256
 461 216 445 242 418 262 c 256
 391 282 350 296 301 308 c 256
 231 325 172 345 130 375 c 256
 88 405 64 447 64 508 c 256
 64 624 151 703 301 703 c 256
 433 703 512 636 538 553 c 257
 541 544 l 257
 462 513 l 257
 441 584 386 624 301 624 c 256
 214 624 158 583 158 513 c 256
 158 480 173 457 200 439 c 256
 227 421 270 407 326 393 c 256
 393 376 450 356 491 324 c 256
 531 292 555 247 555 183 c 256
 555 56 455 -13 306 -13 c 256
EndSplineSet
EndChar

StartChar: Sigma
Encoding: 931 931 133
Width: 514
VWidth: 0
Flags: HW
LayerCount: 2
Fore
SplineSet
36 0 m 257
 36 83 l 257
 286 344 l 257
 36 597 l 257
 36 676 l 257
 481 676 l 257
 481 595 l 257
 152 595 l 257
 387 354 l 257
 387 335 l 257
 143 81 l 257
 496 81 l 257
 496 0 l 257
 36 0 l 257
EndSplineSet
EndChar

StartChar: T
Encoding: 84 84 134
Width: 581
VWidth: 0
Flags: HW
LayerCount: 2
Fore
SplineSet
295 357 m 1280
293 0 m 1280
292 690 m 1280
244 0 m 257
 244 611 l 257
 19 611 l 257
 19 690 l 257
 563 690 l 257
 563 611 l 257
 337 611 l 257
 337 0 l 257
 244 0 l 257
EndSplineSet
EndChar

StartChar: Thorn
Encoding: 222 222 138
Width: 602
VWidth: 0
Flags: HW
LayerCount: 2
Fore
SplineSet
321 690 m 1280
89 0 m 257
 89 690 l 257
 181 690 l 257
 181 590 l 257
 311 590 l 258
 469 590 557 539 557 395 c 256
 557 252 464 182 304 182 c 258
 181 182 l 257
 181 0 l 257
 89 0 l 257
181 261 m 257
 293 261 l 258
 414 261 462 301 462 394 c 256
 462 485 408 511 304 511 c 258
 181 511 l 257
 181 261 l 257
EndSplineSet
EndChar

StartChar: U
Encoding: 85 85 139
Width: 682
VWidth: 0
Flags: HW
LayerCount: 2
Fore
SplineSet
353 0 m 1280
354 690 m 1280
341 -13 m 256
 164 -13 82 68 82 261 c 258
 82 690 l 257
 175 690 l 257
 175 267 l 258
 175 119 225 65 340 65 c 256
 457 65 509 111 509 266 c 258
 509 690 l 257
 602 690 l 257
 602 261 l 258
 602 66 521 -13 341 -13 c 256
EndSplineSet
EndChar

StartChar: V
Encoding: 86 86 153
Width: 612
VWidth: 0
Flags: HW
LayerCount: 2
Fore
SplineSet
252 0 m 257
 19 690 l 257
 118 690 l 257
 278 194 l 257
 306 100 l 257
 307 100 l 257
 334 190 l 257
 496 690 l 257
 593 690 l 257
 358 0 l 257
 252 0 l 257
EndSplineSet
EndChar

StartChar: W
Encoding: 87 87 154
Width: 868
VWidth: 0
Flags: HW
LayerCount: 2
Fore
SplineSet
434 690 m 1280
195 0 m 257
 30 690 l 257
 123 690 l 257
 229 229 l 257
 247 141 l 257
 248 141 l 257
 268 228 l 257
 385 690 l 257
 480 690 l 257
 597 232 l 257
 618 138 l 257
 620 138 l 257
 639 232 l 257
 744 690 l 257
 836 690 l 257
 669 0 l 257
 570 0 l 257
 451 468 l 257
 433 548 l 257
 431 548 l 257
 414 469 l 257
 293 0 l 257
 195 0 l 257
EndSplineSet
EndChar

StartChar: X
Encoding: 88 88 159
Width: 606
VWidth: 0
Flags: HW
LayerCount: 2
Fore
SplineSet
28 0 m 257
 252 347 l 257
 34 690 l 257
 144 690 l 257
 306 419 l 257
 471 690 l 257
 579 690 l 257
 359 349 l 257
 580 0 l 257
 471 0 l 257
 304 276 l 257
 136 0 l 257
 28 0 l 257
EndSplineSet
EndChar

StartChar: Y
Encoding: 89 89 160
Width: 580
VWidth: 0
Flags: HW
LayerCount: 2
Fore
SplineSet
301 690 m 1280
243 0 m 257
 243 257 l 257
 16 690 l 257
 121 690 l 257
 291 348 l 257
 462 690 l 257
 565 690 l 257
 336 257 l 257
 336 0 l 257
 243 0 l 257
EndSplineSet
EndChar

StartChar: Z
Encoding: 90 90 167
Width: 579
VWidth: 0
Flags: HW
LayerCount: 2
Fore
SplineSet
311 690 m 1280
46 0 m 257
 46 80 l 257
 412 611 l 257
 57 611 l 257
 57 690 l 257
 520 690 l 257
 520 614 l 257
 151 79 l 257
 531 79 l 257
 531 0 l 257
 46 0 l 257
EndSplineSet
EndChar

StartChar: a
Encoding: 97 97 171
Width: 542
VWidth: 0
Flags: HW
LayerCount: 2
Fore
SplineSet
425 0 m 1280
270 519 m 1280
212 -13 m 256
 111 -13 53 49 53 146 c 256
 53 254 121 303 261 314 c 257
 378 320 l 257
 378 356 l 258
 378 429 333 458 260 458 c 256
 197 458 156 428 146 391 c 257
 68 416 l 257
 71 425 l 258
 91 486 162 532 264 532 c 256
 399 532 467 478 467 353 c 258
 467 99 l 258
 467 83 468 13 472 0 c 257
 382 0 l 257
 380 11 378 58 378 70 c 257
 334 25 281 -13 212 -13 c 256
233 64 m 256
 290 64 345 105 378 144 c 257
 378 254 l 257
 286 249 l 258
 193 243 143 209 143 146 c 256
 143 89 175 64 233 64 c 256
EndSplineSet
EndChar

StartChar: acute
Encoding: 180 180 176
Width: 600
VWidth: 0
Flags: HW
LayerCount: 2
Fore
SplineSet
262 519 m 1280
235 590 m 257
 322 766 l 257
 437 766 l 257
 304 590 l 257
 235 590 l 257
EndSplineSet
EndChar

StartChar: acute.cap
Encoding: 65536 -1 177
Width: 600
VWidth: 0
Flags: HW
LayerCount: 2
Fore
SplineSet
263 690 m 1280
235 754 m 257
 322 930 l 257
 437 930 l 257
 304 754 l 257
 235 754 l 257
EndSplineSet
EndChar

StartChar: acutecomb
Encoding: 769 769 178
Width: 600
VWidth: 0
Flags: HW
LayerCount: 2
Fore
SplineSet
-30 590 m 257
 57 766 l 257
 172 766 l 257
 39 590 l 257
 -30 590 l 257
EndSplineSet
EndChar

StartChar: ae
Encoding: 230 230 182
Width: 831
VWidth: 0
Flags: HW
LayerCount: 2
Fore
SplineSet
428 519 m 1280
786 247 m 257
 453 247 l 257
 454 125 494 61 593 61 c 256
 647 61 686 79 719 118 c 257
 775 68 l 257
 735 17 680 -13 589 -13 c 256
 506 -13 447 17 412 72 c 257
 343 17 279 -13 200 -13 c 256
 99 -13 41 49 41 146 c 256
 41 254 109 314 249 314 c 258
 370 314 l 257
 370 356 l 258
 370 429 325 458 248 458 c 256
 185 458 144 428 134 391 c 257
 56 416 l 257
 59 425 l 258
 79 486 150 532 252 532 c 256
 347 532 403 497 424 451 c 257
 450 498 507 532 580 532 c 256
 717 532 786 449 786 297 c 258
 786 247 l 257
455 314 m 257
 698 314 l 257
 697 405 660 459 578 459 c 256
 501 459 467 405 455 318 c 257
 455 314 l 257
131 146 m 256
 131 89 163 64 221 64 c 256
 270 64 345 98 385 132 c 257
 374 167 369 204 369 247 c 257
 274 247 l 257
 181 250 131 209 131 146 c 256
EndSplineSet
EndChar

StartChar: ampersand
Encoding: 38 38 188
Width: 695
VWidth: 0
Flags: HW
LayerCount: 2
Fore
SplineSet
305 -14 m 256
 157 -14 67 61 67 176 c 256
 67 234 84 274 124 312 c 256
 144 331 177 353 224 381 c 257
 180 432 145 484 145 536 c 256
 145 639 205 690 326 690 c 256
 432 690 493 635 493 559 c 256
 493 487 448 428 346 366 c 257
 508 175 l 257
 538 210 559 254 572 307 c 257
 648 288 l 257
 627 213 598 155 560 113 c 257
 656 0 l 257
 547 0 l 257
 501 54 l 257
 435 3 376 -14 305 -14 c 256
307 59 m 256
 383 59 428 90 453 111 c 257
 274 323 l 257
 240 301 215 283 200 269 c 256
 169 241 158 217 158 174 c 256
 158 106 219 59 307 59 c 256
297 424 m 257
 366 463 407 511 407 558 c 256
 407 597 379 625 323 625 c 256
 262 625 231 595 231 540 c 256
 231 505 262 466 297 424 c 257
EndSplineSet
EndChar

StartChar: approxequal
Encoding: 8776 8776 190
Width: 697
VWidth: 0
Flags: HW
LayerCount: 2
Fore
SplineSet
474 87 m 256
 434 87 388 106 344 125 c 256
 300 145 258 164 227 164 c 256
 185 164 136 141 80 94 c 257
 80 172 l 257
 145 224 197 234 229 234 c 256
 269 234 312 215 354 196 c 256
 396 176 436 157 472 157 c 256
 525 157 574 191 617 227 c 257
 617 149 l 257
 566 106 515 87 474 87 c 256
473 307 m 256
 433 307 387 326 343 346 c 256
 299 365 257 384 226 384 c 256
 181 384 132 360 79 314 c 257
 79 392 l 257
 144 444 196 454 228 454 c 256
 268 454 311 435 353 416 c 256
 395 396 435 377 471 377 c 256
 514 377 550 394 616 447 c 257
 616 369 l 257
 575 334 534 307 473 307 c 256
EndSplineSet
EndChar

StartChar: asciicircum
Encoding: 94 94 193
Width: 606
VWidth: 0
Flags: HW
LayerCount: 2
Fore
SplineSet
70 290 m 257
 267 676 l 257
 340 676 l 257
 537 290 l 257
 463 290 l 257
 304 601 l 257
 144 290 l 257
 70 290 l 257
EndSplineSet
EndChar

StartChar: asciitilde
Encoding: 126 126 194
Width: 696
VWidth: 0
Flags: HW
LayerCount: 2
Fore
SplineSet
474 293 m 256
 433 293 388 312 344 332 c 256
 300 352 258 370 227 370 c 256
 184 370 131 345 80 300 c 257
 80 378 l 257
 145 430 197 440 229 440 c 256
 269 440 312 421 354 402 c 256
 396 382 435 363 472 363 c 256
 503 363 532 375 558 390 c 256
 571 397 591 411 617 433 c 257
 617 355 l 257
 612 351 604 345 595 339 c 256
 576 325 552 311 521 301 c 256
 506 296 490 293 474 293 c 256
EndSplineSet
EndChar

StartChar: asterisk
Encoding: 42 42 195
Width: 462
VWidth: 0
Flags: HW
LayerCount: 2
Fore
SplineSet
204 388 m 257
 205 519 l 257
 73 441 l 257
 45 489 l 257
 184 565 l 257
 45 641 l 257
 73 688 l 257
 205 611 l 257
 204 742 l 257
 259 742 l 257
 257 611 l 257
 390 688 l 257
 418 640 l 257
 279 565 l 257
 418 489 l 257
 390 442 l 257
 258 519 l 257
 259 388 l 257
 204 388 l 257
EndSplineSet
EndChar

StartChar: at
Encoding: 64 64 196
Width: 944
VWidth: 0
Flags: HW
LayerCount: 2
Fore
SplineSet
477 -151 m 256
 310 -151 180 -80 111 48 c 256
 76 112 59 186 59 270 c 256
 59 426 135 562 264 635 c 256
 329 672 400 690 479 690 c 256
 737 690 886 535 886 278 c 256
 886 105 816 8 699 8 c 256
 629 8 593 25 580 77 c 257
 533 39 484 21 435 21 c 256
 357 21 303 60 275 131 c 256
 261 167 254 207 254 252 c 256
 254 408 330 499 459 499 c 256
 500 499 538 486 576 459 c 257
 576 485 l 257
 659 485 l 257
 659 132 l 258
 659 90 671 77 706 77 c 256
 769 77 811 153 811 274 c 256
 811 497 693 621 480 621 c 256
 349 621 237 558 178 449 c 256
 148 395 134 334 134 269 c 256
 134 56 265 -82 478 -82 c 256
 557 -82 626 -75 687 -60 c 257
 703 -130 l 257
 643 -144 567 -151 477 -151 c 256
454 99 m 256
 487 99 527 116 575 151 c 257
 575 386 l 257
 535 412 501 425 472 425 c 256
 376 425 339 366 339 254 c 256
 339 151 377 99 454 99 c 256
EndSplineSet
EndChar

StartChar: b
Encoding: 98 98 198
Width: 571
VWidth: 0
Flags: HW
LayerCount: 2
Fore
SplineSet
321 519 m 1280
315 -13 m 256
 252 -13 200 15 164 53 c 257
 160 0 l 257
 78 0 l 257
 78 741 l 257
 167 741 l 257
 167 463 l 257
 202 503 254 532 320 532 c 256
 453 532 518 421 518 258 c 258
 518 249 l 257
 517 92 445 -13 315 -13 c 256
298 63 m 256
 381 63 427 130 428 249 c 257
 428 257 l 258
 428 382 388 455 300 455 c 256
 243 455 198 423 167 384 c 257
 167 130 l 257
 198 92 243 63 298 63 c 256
EndSplineSet
EndChar

StartChar: backslash
Encoding: 92 92 199
Width: 455
VWidth: 0
Flags: HW
LayerCount: 2
Fore
SplineSet
366 -112 m 257
 37 730 l 257
 123 730 l 257
 451 -112 l 257
 366 -112 l 257
EndSplineSet
EndChar

StartChar: bar
Encoding: 124 124 200
Width: 348
VWidth: 0
Flags: HW
LayerCount: 2
Fore
SplineSet
136 -169 m 257
 136 730 l 257
 213 730 l 257
 213 -169 l 257
 136 -169 l 257
EndSplineSet
EndChar

StartChar: braceleft
Encoding: 123 123 202
Width: 477
VWidth: 0
Flags: HW
LayerCount: 2
Fore
SplineSet
393 -193 m 258
 276 -193 201 -128 201 -7 c 258
 201 65 l 258
 201 181 151 239 59 239 c 258
 50 239 l 257
 50 311 l 257
 59 311 l 258
 154 311 201 369 201 485 c 258
 201 556 l 258
 201 679 277 742 393 742 c 258
 427 742 l 257
 427 677 l 257
 402 677 l 258
 317 677 278 634 278 548 c 258
 278 464 l 258
 278 362 227 305 141 274 c 257
 232 243 278 180 278 85 c 258
 278 1 l 258
 278 -85 317 -128 402 -128 c 258
 427 -128 l 257
 427 -193 l 257
 393 -193 l 258
EndSplineSet
EndChar

StartChar: braceright
Encoding: 125 125 203
Width: 477
VWidth: 0
Flags: HW
LayerCount: 2
Fore
SplineSet
50 -193 m 257
 50 -128 l 257
 75 -128 l 258
 160 -128 199 -85 199 1 c 258
 199 85 l 258
 199 180 245 243 336 274 c 257
 250 305 199 362 199 464 c 258
 199 548 l 258
 199 634 160 677 75 677 c 258
 50 677 l 257
 50 742 l 257
 84 742 l 258
 209 742 276 676 276 556 c 258
 276 485 l 258
 276 369 323 311 418 311 c 258
 427 311 l 257
 427 239 l 257
 418 239 l 258
 326 239 276 181 276 65 c 258
 276 -7 l 258
 276 -128 203 -193 84 -193 c 258
 50 -193 l 257
EndSplineSet
EndChar

StartChar: bracketleft
Encoding: 91 91 204
Width: 343
VWidth: 0
Flags: HW
LayerCount: 2
Fore
SplineSet
85 -177 m 257
 85 762 l 257
 303 762 l 257
 303 692 l 257
 170 692 l 257
 170 -107 l 257
 303 -107 l 257
 303 -177 l 257
 85 -177 l 257
EndSplineSet
EndChar

StartChar: bracketright
Encoding: 93 93 205
Width: 343
VWidth: 0
Flags: HW
LayerCount: 2
Fore
SplineSet
38 -177 m 257
 38 -107 l 257
 172 -107 l 257
 172 692 l 257
 38 692 l 257
 38 762 l 257
 256 762 l 257
 256 -177 l 257
 38 -177 l 257
EndSplineSet
EndChar

StartChar: breve
Encoding: 728 728 206
Width: 600
VWidth: 0
Flags: HW
LayerCount: 2
Fore
SplineSet
262 519 m 1280
264 589 m 256
 165 589 105 648 105 727 c 257
 167 727 l 257
 176 686 212 666 263 666 c 256
 330 666 355 686 363 727 c 257
 425 727 l 257
 425 646 366 589 264 589 c 256
EndSplineSet
EndChar

StartChar: breve.cap
Encoding: 65537 -1 207
Width: 600
VWidth: 0
Flags: HW
LayerCount: 2
Fore
SplineSet
263 690 m 1280
264 743 m 256
 165 743 105 803 105 881 c 257
 167 881 l 257
 176 840 212 820 263 820 c 256
 330 820 355 840 363 881 c 257
 425 881 l 257
 425 801 366 743 264 743 c 256
EndSplineSet
EndChar

StartChar: brokenbar
Encoding: 166 166 208
Width: 416
VWidth: 0
Flags: HW
LayerCount: 2
Fore
SplineSet
170 -193 m 257
 170 118 l 257
 246 118 l 257
 246 -193 l 257
 170 -193 l 257
170 431 m 257
 170 742 l 257
 246 742 l 257
 246 431 l 257
 170 431 l 257
EndSplineSet
EndChar

StartChar: bullet
Encoding: 8226 8226 209
Width: 377
VWidth: 0
Flags: HW
LayerCount: 2
Fore
SplineSet
189 239 m 256
 120 239 63 296 63 364 c 256
 63 435 120 490 189 490 c 256
 259 490 314 434 314 364 c 256
 314 296 257 239 189 239 c 256
EndSplineSet
EndChar

StartChar: uni2219
Encoding: 8729 8729 210
Width: 270
VWidth: 0
Flags: HW
LayerCount: 2
Fore
SplineSet
123 230 m 256
 75 230 61 250 61 288 c 256
 61 329 78 346 123 346 c 256
 170 346 186 329 186 288 c 256
 186 245 166 230 123 230 c 256
EndSplineSet
EndChar

StartChar: c
Encoding: 99 99 211
Width: 513
VWidth: 0
Flags: HW
LayerCount: 2
Fore
SplineSet
291 0 m 1280
289 519 m 1280
285 -13 m 256
 133 -13 53 87 53 255 c 258
 53 267 l 257
 54 432 134 532 282 532 c 256
 379 532 450 482 472 406 c 256
 473 403 473 401 474 399 c 257
 398 373 l 257
 383 423 343 458 282 458 c 256
 184 458 145 381 144 266 c 257
 144 253 l 258
 144 124 186 61 284 61 c 256
 341 61 384 90 402 140 c 257
 478 114 l 257
 477 111 476 109 475 106 c 256
 456 40 385 -13 285 -13 c 256
EndSplineSet
EndChar

StartChar: caron
Encoding: 711 711 213
Width: 600
VWidth: 0
Flags: HW
LayerCount: 2
Fore
SplineSet
262 519 m 1280
213 590 m 257
 102 766 l 257
 175 766 l 257
 265 650 l 257
 355 766 l 257
 428 766 l 257
 316 590 l 257
 213 590 l 257
EndSplineSet
EndChar

StartChar: caron.alt
Encoding: 65538 -1 214
Width: 600
VWidth: 0
Flags: HW
LayerCount: 2
Fore
SplineSet
232 551 m 257
 264 727 l 257
 369 727 l 257
 291 551 l 257
 232 551 l 257
EndSplineSet
EndChar

StartChar: caron.cap
Encoding: 65539 -1 215
Width: 600
VWidth: 0
Flags: HW
LayerCount: 2
Fore
SplineSet
265 690 m 1280
213 754 m 257
 102 930 l 257
 175 930 l 257
 265 814 l 257
 355 930 l 257
 428 930 l 257
 316 754 l 257
 213 754 l 257
EndSplineSet
EndChar

StartChar: cedilla
Encoding: 184 184 220
Width: 600
VWidth: 0
Flags: HW
LayerCount: 2
Fore
SplineSet
266 0 m 1280
236 -193 m 256
 186 -193 133 -178 119 -170 c 257
 144 -121 l 257
 163 -127 205 -137 238 -137 c 256
 277 -137 297 -125 297 -99 c 256
 297 -73 270 -53 211 -49 c 257
 241 9 l 257
 293 9 l 257
 281 -15 l 257
 337 -29 361 -66 361 -105 c 256
 361 -161 313 -193 236 -193 c 256
EndSplineSet
EndChar

StartChar: cent
Encoding: 162 162 221
Width: 502
VWidth: 0
Flags: HW
LayerCount: 2
Fore
SplineSet
169 -127 m 257
 196 -2 l 257
 96 31 57 128 57 255 c 256
 57 433 134 527 281 527 c 256
 291 527 302 526 312 525 c 257
 335 629 l 257
 393 629 l 257
 367 513 l 257
 408 499 439 473 461 433 c 257
 392 391 l 257
 379 411 365 426 350 435 c 257
 268 58 l 257
 283 58 l 258
 338 58 368 78 399 121 c 257
 468 79 l 257
 436 24 384 -15 284 -15 c 256
 273 -15 262 -14 252 -13 c 257
 227 -127 l 257
 169 -127 l 257
213 74 m 257
 296 453 l 257
 288 454 l 257
 280 454 l 258
 182 454 144 378 144 253 c 256
 144 169 160 103 213 74 c 257
EndSplineSet
EndChar

StartChar: circumflex
Encoding: 710 710 222
Width: 600
VWidth: 0
Flags: HW
LayerCount: 2
Fore
SplineSet
263 519 m 1280
102 590 m 257
 214 766 l 257
 317 766 l 257
 428 590 l 257
 355 590 l 257
 265 706 l 257
 175 590 l 257
 102 590 l 257
EndSplineSet
EndChar

StartChar: circumflex.cap
Encoding: 65540 -1 223
Width: 600
VWidth: 0
Flags: HW
LayerCount: 2
Fore
SplineSet
263 690 m 1280
102 754 m 257
 214 930 l 257
 317 930 l 257
 428 754 l 257
 355 754 l 257
 265 870 l 257
 175 754 l 257
 102 754 l 257
EndSplineSet
EndChar

StartChar: colon
Encoding: 58 58 224
Width: 270
VWidth: 0
Flags: HW
LayerCount: 2
Fore
SplineSet
135 -7 m 256
 89 -7 76 13 76 48 c 256
 76 87 93 103 135 103 c 256
 179 103 195 87 195 48 c 256
 195 7 177 -7 135 -7 c 256
135 402 m 256
 89 402 76 422 76 457 c 256
 76 496 93 512 135 512 c 256
 179 512 195 496 195 457 c 256
 195 415 177 402 135 402 c 256
EndSplineSet
EndChar

StartChar: comma
Encoding: 44 44 225
Width: 241
VWidth: 0
Flags: HW
LayerCount: 2
Fore
SplineSet
89 -143 m 257
 113 -113 130 -55 130 -7 c 257
 91 -7 76 9 76 48 c 256
 76 84 92 103 135 103 c 256
 178 103 195 81 195 38 c 256
 195 -42 166 -112 140 -143 c 257
 89 -143 l 257
EndSplineSet
EndChar

StartChar: copyright
Encoding: 169 169 226
Width: 905
VWidth: 0
Flags: HW
LayerCount: 2
Fore
SplineSet
465 83 m 256
 332 83 272 154 272 299 c 256
 272 445 331 516 463 516 c 256
 543 516 591 480 618 430 c 257
 560 394 l 257
 541 427 517 456 462 456 c 256
 374 456 343 403 343 299 c 256
 343 193 379 143 463 143 c 256
 507 143 542 165 566 208 c 257
 624 173 l 257
 587 111 537 83 465 83 c 256
453 -33 m 256
 570 -33 678 30 737 132 c 256
 766 183 781 238 781 298 c 256
 781 417 718 525 617 584 c 256
 566 613 511 628 453 628 c 256
 335 628 228 565 169 463 c 256
 140 412 125 357 125 298 c 256
 125 179 186 72 288 12 c 256
 339 -18 394 -33 453 -33 c 256
453 -96 m 256
 310 -96 182 -22 112 100 c 256
 77 161 60 227 60 298 c 256
 60 442 133 569 255 638 c 256
 316 673 382 690 453 690 c 256
 597 690 724 617 793 495 c 256
 828 434 845 368 845 298 c 256
 845 154 772 25 651 -44 c 256
 590 -79 524 -96 453 -96 c 256
EndSplineSet
EndChar

StartChar: currency
Encoding: 164 164 227
Width: 617
VWidth: 0
Flags: HW
LayerCount: 2
Fore
SplineSet
103 36 m 257
 58 80 l 257
 153 177 l 257
 130 210 118 245 118 286 c 256
 118 330 130 367 152 396 c 257
 58 491 l 257
 103 536 l 257
 197 443 l 257
 230 468 266 480 308 480 c 256
 351 480 389 468 420 444 c 257
 514 536 l 257
 558 491 l 257
 467 398 l 257
 491 367 503 329 503 286 c 256
 503 248 491 212 466 175 c 257
 558 80 l 257
 514 36 l 257
 419 129 l 257
 380 102 347 95 308 95 c 256
 266 95 230 107 199 130 c 257
 103 36 l 257
308 163 m 256
 379 163 432 218 432 286 c 256
 432 357 378 412 308 412 c 256
 239 412 189 356 189 286 c 256
 189 243 210 203 248 180 c 256
 267 169 286 163 308 163 c 256
EndSplineSet
EndChar

StartChar: d
Encoding: 100 100 228
Width: 571
VWidth: 0
Flags: HW
LayerCount: 2
Fore
SplineSet
430 647 m 1280
262 519 m 1280
252 -13 m 256
 125 -13 54 88 53 243 c 257
 53 253 l 258
 53 414 125 532 260 532 c 256
 318 532 365 510 403 471 c 257
 403 741 l 257
 492 741 l 257
 492 0 l 257
 410 0 l 257
 406 56 l 257
 370 16 318 -13 252 -13 c 256
271 63 m 256
 328 63 373 94 403 132 c 257
 403 394 l 257
 367 432 326 455 276 455 c 256
 190 455 145 380 144 258 c 257
 144 250 l 258
 144 132 183 63 271 63 c 256
EndSplineSet
EndChar

StartChar: dagger
Encoding: 8224 8224 229
Width: 546
VWidth: 0
Flags: HW
LayerCount: 2
Fore
SplineSet
225 -193 m 257
 241 422 l 257
 47 411 l 257
 47 498 l 257
 241 486 l 257
 228 742 l 257
 317 742 l 257
 305 486 l 257
 499 498 l 257
 499 411 l 257
 305 422 l 257
 320 -193 l 257
 225 -193 l 257
EndSplineSet
EndChar

StartChar: daggerdbl
Encoding: 8225 8225 230
Width: 545
VWidth: 0
Flags: HW
LayerCount: 2
Fore
SplineSet
227 -193 m 257
 240 37 l 257
 55 25 l 257
 55 113 l 257
 240 101 l 257
 231 274 l 257
 240 447 l 257
 55 435 l 257
 55 523 l 257
 240 511 l 257
 227 741 l 257
 318 741 l 257
 305 511 l 257
 490 523 l 257
 490 435 l 257
 305 447 l 257
 314 274 l 257
 305 101 l 257
 490 113 l 257
 490 25 l 257
 305 37 l 257
 318 -193 l 257
 227 -193 l 257
EndSplineSet
EndChar

StartChar: degree
Encoding: 176 176 234
Width: 421
VWidth: 0
Flags: HW
LayerCount: 2
Fore
SplineSet
212 468 m 256
 134 468 74 531 74 606 c 256
 74 679 133 742 211 742 c 256
 287 742 348 682 348 606 c 256
 348 557 321 509 279 486 c 256
 258 474 236 468 212 468 c 256
212 526 m 256
 256 526 290 563 290 605 c 256
 290 649 256 684 212 684 c 256
 165 684 132 648 132 606 c 256
 132 563 167 526 212 526 c 256
EndSplineSet
EndChar

StartChar: dieresis
Encoding: 168 168 235
Width: 600
VWidth: 0
Flags: HW
LayerCount: 2
Fore
SplineSet
268 519 m 1280
170 590 m 256
 129 590 118 610 118 642 c 256
 118 677 131 694 170 694 c 256
 210 694 223 678 223 642 c 256
 223 603 209 590 170 590 c 256
363 590 m 256
 322 590 311 610 311 642 c 256
 311 677 324 694 363 694 c 256
 403 694 416 678 416 642 c 256
 416 603 402 590 363 590 c 256
EndSplineSet
EndChar

StartChar: dieresis.cap
Encoding: 65541 -1 236
Width: 600
VWidth: 0
Flags: HW
LayerCount: 2
Fore
SplineSet
263 690 m 1280
168 754 m 256
 127 754 116 774 116 806 c 256
 116 841 129 858 168 858 c 256
 208 858 221 842 221 806 c 256
 221 767 207 754 168 754 c 256
361 754 m 256
 320 754 309 774 309 806 c 256
 309 841 322 858 361 858 c 256
 401 858 414 842 414 806 c 256
 414 767 400 754 361 754 c 256
EndSplineSet
EndChar

StartChar: divide
Encoding: 247 247 237
Width: 697
VWidth: 0
Flags: HW
LayerCount: 2
Fore
SplineSet
304 21 m 257
 304 109 l 257
 392 109 l 257
 392 21 l 257
 304 21 l 257
80 251 m 257
 80 321 l 257
 617 321 l 257
 617 251 l 257
 80 251 l 257
304 463 m 257
 304 551 l 257
 392 551 l 257
 392 463 l 257
 304 463 l 257
EndSplineSet
EndChar

StartChar: uni2215
Encoding: 8725 8725 238
Width: 484
VWidth: 0
Flags: HW
LayerCount: 2
Fore
SplineSet
4 -146 m 257
 353 742 l 257
 435 742 l 257
 85 -146 l 257
 4 -146 l 257
EndSplineSet
EndChar

StartChar: dollar
Encoding: 36 36 239
Width: 617
VWidth: 0
Flags: HW
LayerCount: 2
Fore
SplineSet
277 -115 m 257
 277 780 l 257
 340 780 l 257
 340 -115 l 257
 277 -115 l 257
EndSplineSet
Refer: 125 83 N 1 0 0 1 0 0 2
EndChar

StartChar: dotaccent
Encoding: 729 729 240
Width: 600
VWidth: 0
Flags: HW
LayerCount: 2
Fore
SplineSet
266 519 m 1280
265 590 m 256
 220 590 209 611 209 646 c 256
 209 685 222 702 265 702 c 256
 308 702 322 685 322 646 c 256
 322 605 306 590 265 590 c 256
EndSplineSet
EndChar

StartChar: dotaccent.cap
Encoding: 65542 -1 241
Width: 600
VWidth: 0
Flags: HW
LayerCount: 2
Fore
SplineSet
263 690 m 1280
265 754 m 256
 220 754 209 775 209 810 c 256
 209 849 222 866 265 866 c 256
 308 866 322 849 322 810 c 256
 322 769 306 754 265 754 c 256
EndSplineSet
EndChar

StartChar: dotbelowcomb
Encoding: 803 803 242
Width: 600
VWidth: 0
Flags: HW
LayerCount: 2
Fore
SplineSet
265 -182 m 256
 220 -182 209 -161 209 -126 c 256
 209 -87 222 -70 265 -70 c 256
 308 -70 322 -87 322 -126 c 256
 322 -167 306 -182 265 -182 c 256
EndSplineSet
EndChar

StartChar: dotlessi
Encoding: 305 305 243
Width: 250
VWidth: 0
Flags: HW
PickledData: "(dp1
S'com.fontlab.hintData'
p2
(dp3
S'vhints'
p4
((dp5
S'position'
p6
I81
sS'width'
p7
I89
stp8
ss."
VStem: 81 89<0 519 0 519>
LayerCount: 2
Fore
SplineSet
121 0 m 1280
128 519 m 1280
81 0 m 257
 81 519 l 257
 170 519 l 257
 170 0 l 257
 81 0 l 257
EndSplineSet
EndChar

StartChar: uni0237
Encoding: 567 567 244
Width: 260
VWidth: 0
Flags: HW
LayerCount: 2
Fore
SplineSet
134 519 m 1280
22 -201 m 256
 -7 -201 -31 -197 -55 -189 c 257
 -39 -117 l 257
 -22 -124 1 -128 21 -128 c 256
 74 -128 88 -90 88 -25 c 258
 88 519 l 257
 177 519 l 257
 177 -31 l 258
 177 -147 128 -201 22 -201 c 256
EndSplineSet
EndChar

StartChar: e
Encoding: 101 101 247
Width: 528
VWidth: 0
Flags: HW
LayerCount: 2
Fore
SplineSet
345 0 m 1280
279 519 m 1280
286 -13 m 256
 135 -13 54 85 54 253 c 258
 54 268 l 257
 56 436 141 532 277 532 c 256
 414 532 483 449 483 297 c 258
 483 244 l 257
 145 243 l 257
 146 124 191 61 290 61 c 256
 344 61 383 79 416 118 c 257
 472 68 l 257
 432 17 377 -13 286 -13 c 256
147 314 m 257
 395 314 l 257
 394 405 357 459 275 459 c 256
 198 459 159 405 147 318 c 257
 147 314 l 257
EndSplineSet
EndChar

StartChar: eight
Encoding: 56 56 256
Width: 573
VWidth: 0
Flags: HW
LayerCount: 2
Fore
SplineSet
287 -13 m 256
 139 -13 52 54 52 181 c 256
 52 269 107 330 194 362 c 257
 100 405 70 445 70 521 c 256
 70 637 150 703 287 703 c 256
 422 703 504 638 504 521 c 256
 504 446 469 402 379 362 c 257
 469 325 521 268 521 181 c 256
 521 52 427 -13 287 -13 c 256
287 61 m 256
 380 61 429 109 429 182 c 256
 429 250 394 290 287 324 c 257
 180 293 145 252 145 182 c 256
 145 108 194 61 287 61 c 256
287 399 m 257
 364 419 412 460 412 519 c 256
 412 583 366 629 287 629 c 256
 204 629 163 584 163 521 c 256
 163 461 195 429 287 399 c 257
EndSplineSet
EndChar

StartChar: ellipsis
Encoding: 8230 8230 258
Width: 1029
VWidth: 0
Flags: HW
LayerCount: 2
Fore
SplineSet
181 -7 m 256
 134 -7 122 13 122 48 c 256
 122 87 138 103 181 103 c 256
 225 103 241 87 241 48 c 256
 241 7 222 -7 181 -7 c 256
514 -7 m 256
 467 -7 455 13 455 48 c 256
 455 87 471 103 514 103 c 256
 558 103 574 87 574 48 c 256
 574 7 555 -7 514 -7 c 256
847 -7 m 256
 800 -7 788 13 788 48 c 256
 788 87 804 103 847 103 c 256
 891 103 907 87 907 48 c 256
 907 7 888 -7 847 -7 c 256
EndSplineSet
EndChar

StartChar: emdash
Encoding: 8212 8212 260
Width: 1029
VWidth: 0
Flags: HW
PickledData: "(dp1
S'com.fontlab.hintData'
p2
(dp3
S'hhints'
p4
((dp5
S'position'
p6
I222
sS'width'
p7
I70
stp8
ss."
HStem: 222 70<25 1005 25 1005>
LayerCount: 2
Fore
SplineSet
25 222 m 257
 25 292 l 257
 1005 292 l 257
 1005 222 l 257
 25 222 l 257
EndSplineSet
EndChar

StartChar: endash
Encoding: 8211 8211 262
Width: 529
VWidth: 0
Flags: HW
PickledData: "(dp1
S'com.fontlab.hintData'
p2
(dp3
S'hhints'
p4
((dp5
S'position'
p6
I222
sS'width'
p7
I70
stp8
ss."
HStem: 222 70<25 505 25 505>
LayerCount: 2
Fore
SplineSet
25 222 m 257
 25 292 l 257
 505 292 l 257
 505 222 l 257
 25 222 l 257
EndSplineSet
EndChar

StartChar: eng
Encoding: 331 331 263
Width: 568
VWidth: 0
Flags: HW
LayerCount: 2
Fore
SplineSet
165 442 m 257
 206 490 266 532 335 532 c 256
 444 532 493 471 493 339 c 258
 493 -22 l 258
 493 -146 447 -193 340 -193 c 256
 307 -193 277 -188 248 -178 c 257
 269 -109 l 257
 293 -118 317 -123 343 -123 c 256
 398 -123 404 -84 404 -12 c 258
 404 314 l 258
 404 400 392 452 311 452 c 256
 261 452 208 416 167 371 c 257
 167 0 l 257
 78 0 l 257
 78 519 l 257
 163 519 l 257
 165 442 l 257
EndSplineSet
EndChar

StartChar: equal
Encoding: 61 61 265
Width: 696
VWidth: 0
Flags: HW
LayerCount: 2
Fore
SplineSet
80 138 m 257
 80 208 l 257
 617 208 l 257
 617 138 l 257
 80 138 l 257
80 364 m 257
 80 434 l 257
 617 434 l 257
 617 364 l 257
 80 364 l 257
EndSplineSet
EndChar

StartChar: estimated
Encoding: 8494 8494 266
Width: 683
VWidth: 0
Flags: HW
LayerCount: 2
Fore
SplineSet
338 -12 m 256
 147 -12 43 144 43 304 c 256
 43 503 174 620 340 620 c 256
 536 620 637 467 640 304 c 257
 172 304 l 257
 172 94 l 257
 219 49 274 26 338 26 c 256
 434 26 503 66 563 164 c 257
 600 142 l 257
 529 33 450 -12 338 -12 c 256
172 342 m 257
 507 342 l 257
 507 519 l 257
 464 562 404 582 340 582 c 256
 273 582 217 566 172 520 c 257
 172 342 l 257
EndSplineSet
EndChar

StartChar: eth
Encoding: 240 240 267
Width: 575
VWidth: 0
Flags: HW
LayerCount: 2
Fore
SplineSet
288 -13 m 256
 134 -13 54 83 54 259 c 256
 54 430 131 533 268 533 c 256
 309 533 349 519 386 493 c 257
 373 537 327 607 277 658 c 257
 178 601 l 257
 151 643 l 257
 244 697 l 257
 219 724 190 750 155 771 c 257
 240 771 l 257
 267 756 286 741 298 728 c 257
 373 771 l 257
 402 729 l 257
 339 694 l 257
 460 572 521 428 521 260 c 256
 521 82 441 -13 288 -13 c 256
288 62 m 256
 383 62 431 123 431 260 c 256
 431 396 384 457 287 457 c 256
 188 457 144 399 144 259 c 256
 144 126 190 62 288 62 c 256
EndSplineSet
EndChar

StartChar: exclam
Encoding: 33 33 269
Width: 270
VWidth: 0
Flags: HW
LayerCount: 2
Fore
SplineSet
135 -7 m 256
 89 -7 76 13 76 48 c 256
 76 87 93 103 135 103 c 256
 179 103 195 87 195 48 c 256
 195 7 177 -7 135 -7 c 256
101 195 m 257
 87 690 l 257
 184 690 l 257
 172 195 l 257
 101 195 l 257
EndSplineSet
EndChar

StartChar: f
Encoding: 102 102 271
Width: 323
VWidth: 0
Flags: HW
LayerCount: 2
Fore
SplineSet
150 754 m 1280
102 0 m 257
 102 448 l 257
 24 448 l 257
 24 519 l 257
 102 519 l 257
 102 576 l 258
 102 694 149 754 263 754 c 256
 296 754 324 749 351 739 c 257
 333 666 l 257
 316 673 289 679 269 679 c 256
 211 679 191 651 191 576 c 258
 191 519 l 257
 303 519 l 257
 303 448 l 257
 191 448 l 257
 191 0 l 257
 102 0 l 257
EndSplineSet
EndChar

StartChar: uni02C9
Encoding: 713 713 277
Width: 0
VWidth: 0
Flags: HW
PickledData: "(dp1
S'com.fontlab.hintData'
p2
(dp3
S'vhints'
p4
((dp5
S'position'
p6
I-149
sS'width'
p7
I298
stp8
sS'hhints'
p9
((dp10
g6
I613
sg7
I68
stp11
ss."
HStem: 613 68<-149 149 -149 149>
VStem: -149 298<613 681 613 681>
LayerCount: 2
Fore
SplineSet
-149 613 m 257
 -149 681 l 257
 149 681 l 257
 149 613 l 257
 -149 613 l 257
EndSplineSet
EndChar

StartChar: five
Encoding: 53 53 278
Width: 573
VWidth: 0
Flags: HW
LayerCount: 2
Fore
SplineSet
274 -13 m 256
 168 -13 90 36 68 115 c 256
 67 119 65 123 64 126 c 257
 144 155 l 257
 158 104 203 65 272 65 c 256
 368 65 415 127 415 220 c 256
 415 303 365 362 273 362 c 256
 215 362 178 347 150 313 c 257
 91 316 l 257
 130 690 l 257
 485 690 l 257
 485 607 l 257
 207 607 l 257
 185 411 l 257
 214 429 254 441 296 441 c 256
 433 441 510 357 510 220 c 256
 510 78 429 -13 274 -13 c 256
EndSplineSet
EndChar

StartChar: florin
Encoding: 402 402 280
Width: 537
VWidth: 0
Flags: HW
LayerCount: 2
Fore
SplineSet
77 -194 m 256
 39 -194 2 -188 -32 -175 c 257
 -15 -108 l 257
 16 -117 42 -121 64 -121 c 256
 118 -121 126 -80 142 -4 c 258
 237 442 l 257
 153 442 l 257
 168 512 l 257
 252 512 l 257
 268 582 l 258
 293 695 333 742 421 742 c 256
 465 742 499 729 522 723 c 257
 499 651 l 257
 468 662 447 669 419 669 c 256
 368 669 362 624 352 578 c 258
 337 512 l 257
 439 512 l 257
 425 442 l 257
 322 442 l 257
 215 -57 l 258
 195 -155 150 -194 77 -194 c 256
EndSplineSet
EndChar

StartChar: four
Encoding: 52 52 281
Width: 573
VWidth: 0
Flags: HW
LayerCount: 2
Fore
SplineSet
356 0 m 257
 356 156 l 257
 19 156 l 257
 19 230 l 257
 356 690 l 257
 446 690 l 257
 446 233 l 257
 541 233 l 257
 541 156 l 257
 446 156 l 257
 446 0 l 257
 356 0 l 257
113 233 m 257
 356 233 l 257
 356 565 l 257
 113 233 l 257
EndSplineSet
EndChar

StartChar: uni2074
Encoding: 8308 8308 282
Width: 434
VWidth: 0
Flags: HW
PickledData: "(dp1
S'com.fontlab.hintData'
p2
(dp3
S'vhints'
p4
((dp5
S'position'
p6
I254
sS'width'
p7
I78
stp8
sS'hhints'
p9
((dp10
g6
I409
sg7
I61
stp11
ss."
HStem: 409 61<108 254 21 21 332 394>
VStem: 254 78<320 409 320 409 470 629 629 629>
LayerCount: 2
Fore
SplineSet
332 409 m 257
 332 320 l 257
 254 320 l 257
 254 409 l 257
 21 409 l 257
 21 470 l 257
 263 735 l 257
 332 735 l 257
 332 470 l 257
 394 470 l 257
 394 409 l 257
 332 409 l 257
254 629 m 257
 108 470 l 257
 254 470 l 257
 254 629 l 257
EndSplineSet
EndChar

StartChar: fraction
Encoding: 8260 8260 283
Width: 119
VWidth: 0
Flags: HW
PickledData: "(dp1
S'com.fontlab.hintData'
p2
(dp3
S'hhints'
p4
((dp5
S'position'
p6
I681
sS'width'
p7
I20
stp8
ss."
HStem: 681 20<222 303 303 303>
LayerCount: 2
Fore
SplineSet
-78 -25 m 257
 -158 -25 l 257
 222 701 l 257
 303 701 l 257
 -78 -25 l 257
EndSplineSet
EndChar

StartChar: g
Encoding: 103 103 284
Width: 571
VWidth: 0
Flags: HW
LayerCount: 2
Fore
SplineSet
258 519 m 1280
270 -201 m 256
 202 -201 139 -184 94 -157 c 257
 123 -86 l 257
 162 -112 214 -127 269 -127 c 256
 363 -127 405 -89 405 2 c 258
 405 62 l 257
 369 24 318 -4 253 -4 c 256
 123 -4 54 97 54 255 c 258
 54 264 l 257
 56 421 128 532 261 532 c 256
 321 532 370 507 408 466 c 257
 412 519 l 257
 494 519 l 257
 494 6 l 258
 494 -132 422 -201 270 -201 c 256
272 72 m 256
 325 72 368 98 405 142 c 257
 405 393 l 257
 369 431 327 455 277 455 c 256
 186 455 146 376 145 264 c 257
 145 256 l 258
 145 137 185 72 272 72 c 256
EndSplineSet
EndChar

StartChar: germandbls
Encoding: 223 223 291
Width: 584
VWidth: 0
Flags: HW
LayerCount: 2
Fore
SplineSet
83 533 m 258
 83 713 153 784 294 784 c 256
 412 784 490 732 490 617 c 256
 490 521 444 464 359 450 c 257
 479 436 539 355 539 236 c 256
 539 55 433 -13 299 -13 c 256
 277 -13 254 -12 231 -8 c 257
 231 72 l 257
 249 69 267 68 284 68 c 256
 379 68 447 114 447 241 c 256
 447 377 362 401 243 401 c 257
 243 479 l 257
 352 479 400 522 400 607 c 256
 400 674 364 707 292 707 c 256
 209 707 172 660 172 538 c 258
 172 0 l 257
 83 0 l 257
 83 533 l 258
EndSplineSet
EndChar

StartChar: grave
Encoding: 96 96 292
Width: 443
VWidth: 0
Flags: HW
LayerCount: 2
Fore
SplineSet
263 519 m 1280
223 591 m 257
 95 749 l 257
 209 749 l 257
 296 591 l 257
 223 591 l 257
EndSplineSet
EndChar

StartChar: grave.cap
Encoding: 65543 -1 293
Width: 600
VWidth: 0
Flags: HW
LayerCount: 2
Fore
SplineSet
303 690 m 1280
264 754 m 257
 131 930 l 257
 246 930 l 257
 333 754 l 257
 264 754 l 257
EndSplineSet
EndChar

StartChar: gravecomb
Encoding: 768 768 294
Width: 600
VWidth: 0
Flags: HW
LayerCount: 2
Fore
SplineSet
-1 590 m 257
 -134 766 l 257
 -19 766 l 257
 68 590 l 257
 -1 590 l 257
EndSplineSet
EndChar

StartChar: greater
Encoding: 62 62 295
Width: 696
VWidth: 0
Flags: HW
LayerCount: 2
Fore
SplineSet
80 30 m 257
 80 106 l 257
 519 286 l 257
 80 467 l 257
 80 543 l 257
 617 317 l 257
 617 256 l 257
 80 30 l 257
EndSplineSet
EndChar

StartChar: greaterequal
Encoding: 8805 8805 296
Width: 697
VWidth: 0
Flags: HW
LayerCount: 2
Fore
SplineSet
80 120 m 257
 80 196 l 257
 520 340 l 257
 80 514 l 257
 80 590 l 257
 617 371 l 257
 617 310 l 257
 80 120 l 257
80 0 m 257
 80 70 l 257
 617 70 l 257
 617 0 l 257
 80 0 l 257
EndSplineSet
EndChar

StartChar: guillemotleft
Encoding: 171 171 297
Width: 598
VWidth: 0
Flags: HW
LayerCount: 2
Fore
SplineSet
227 26 m 257
 35 256 l 257
 227 486 l 257
 323 486 l 257
 131 256 l 257
 323 26 l 257
 227 26 l 257
466 26 m 257
 274 256 l 257
 466 486 l 257
 562 486 l 257
 370 256 l 257
 562 26 l 257
 466 26 l 257
EndSplineSet
EndChar

StartChar: guillemotright
Encoding: 187 187 298
Width: 598
VWidth: 0
Flags: HW
LayerCount: 2
Fore
SplineSet
36 26 m 257
 228 256 l 257
 36 486 l 257
 132 486 l 257
 324 256 l 257
 132 26 l 257
 36 26 l 257
275 26 m 257
 467 256 l 257
 275 486 l 257
 371 486 l 257
 563 256 l 257
 371 26 l 257
 275 26 l 257
EndSplineSet
EndChar

StartChar: guilsinglleft
Encoding: 8249 8249 299
Width: 358
VWidth: 0
Flags: HW
PickledData: "(dp1
S'com.fontlab.hintData'
p2
(dp3
S'vhints'
p4
((dp5
S'position'
p6
I35
sS'width'
p7
I288
stp8
ss."
VStem: 35 288<26 256>
LayerCount: 2
Fore
SplineSet
227 26 m 257
 35 256 l 257
 227 486 l 257
 323 486 l 257
 131 256 l 257
 323 26 l 257
 227 26 l 257
EndSplineSet
EndChar

StartChar: guilsinglright
Encoding: 8250 8250 300
Width: 358
VWidth: 0
Flags: HW
PickledData: "(dp1
S'com.fontlab.hintData'
p2
(dp3
S'vhints'
p4
((dp5
S'position'
p6
I36
sS'width'
p7
I288
stp8
ss."
VStem: 36 288<26 256 256 486>
LayerCount: 2
Fore
SplineSet
132 26 m 257
 36 26 l 257
 228 256 l 257
 36 486 l 257
 132 486 l 257
 324 256 l 257
 132 26 l 257
EndSplineSet
EndChar

StartChar: h
Encoding: 104 104 301
Width: 568
VWidth: 0
Flags: HW
LayerCount: 2
Fore
SplineSet
122 616 m 1280
336 519 m 1280
78 0 m 257
 78 741 l 257
 167 741 l 257
 167 445 l 257
 208 491 269 532 336 532 c 256
 445 532 494 470 494 338 c 258
 494 0 l 257
 405 0 l 257
 405 314 l 258
 405 435 382 452 312 452 c 256
 263 452 209 416 167 373 c 257
 167 0 l 257
 78 0 l 257
EndSplineSet
EndChar

StartChar: hookabovecomb
Encoding: 777 777 304
Width: 600
VWidth: 0
Flags: HW
LayerCount: 2
Fore
SplineSet
-32 567 m 257
 -32 622 l 257
 -20 622 l 258
 4 622 16 631 16 649 c 256
 16 667 7 676 -18 676 c 256
 -31 676 -53 670 -67 660 c 257
 -89 702 l 257
 -75 715 -42 728 -3 728 c 256
 56 728 88 701 88 661 c 256
 88 617 64 591 16 585 c 257
 16 567 l 257
 -32 567 l 257
EndSplineSet
EndChar

StartChar: hungarumlaut
Encoding: 733 733 305
Width: 600
VWidth: 0
Flags: HW
LayerCount: 2
Fore
SplineSet
222 519 m 1280
110 590 m 257
 197 766 l 257
 312 766 l 257
 179 590 l 257
 110 590 l 257
280 590 m 257
 367 766 l 257
 482 766 l 257
 349 590 l 257
 280 590 l 257
EndSplineSet
EndChar

StartChar: hungarumlaut.cap
Encoding: 65544 -1 306
Width: 600
VWidth: 0
Flags: HW
LayerCount: 2
Fore
SplineSet
223 690 m 1280
110 754 m 257
 197 930 l 257
 312 930 l 257
 179 754 l 257
 110 754 l 257
280 754 m 257
 367 930 l 257
 482 930 l 257
 349 754 l 257
 280 754 l 257
EndSplineSet
EndChar

StartChar: hyphen
Encoding: 45 45 307
Width: 351
VWidth: 0
Flags: HW
LayerCount: 2
Fore
SplineSet
174 275 m 1280
37 236 m 257
 37 311 l 257
 315 311 l 257
 315 236 l 257
 37 236 l 257
EndSplineSet
EndChar

StartChar: i
Encoding: 105 105 308
Width: 250
VWidth: 0
Flags: HW
LayerCount: 2
Fore
SplineSet
81 0 m 257
 81 519 l 257
 170 519 l 257
 170 0 l 257
 81 0 l 257
126 621 m 256
 89 621 74 636 74 671 c 256
 74 706 89 720 126 720 c 256
 163 720 178 706 178 671 c 256
 178 636 163 621 126 621 c 256
EndSplineSet
EndChar

StartChar: infinity
Encoding: 8734 8734 319
Width: 838
VWidth: 0
Flags: HW
LayerCount: 2
Fore
SplineSet
226 119 m 256
 122 119 49 189 49 290 c 256
 49 356 80 413 133 442 c 256
 160 457 190 464 224 464 c 256
 300 464 365 426 418 350 c 257
 420 350 l 257
 471 424 541 464 610 464 c 256
 718 464 789 392 789 294 c 256
 789 196 721 119 614 119 c 256
 531 119 463 166 420 234 c 257
 418 234 l 257
 371 167 306 119 226 119 c 256
230 188 m 256
 291 188 343 235 380 292 c 257
 341 353 286 395 229 395 c 256
 161 395 127 347 127 290 c 256
 127 230 170 188 230 188 c 256
607 188 m 256
 670 188 710 227 710 293 c 256
 710 357 669 395 607 395 c 256
 543 395 497 352 457 292 c 257
 496 228 548 188 607 188 c 256
EndSplineSet
EndChar

StartChar: integral
Encoding: 8747 8747 320
Width: 517
VWidth: 0
Flags: HW
LayerCount: 2
Fore
SplineSet
140 -233 m 256
 113 -233 75 -227 58 -219 c 257
 78 -147 l 257
 93 -154 110 -157 127 -157 c 256
 182 -157 209 -125 209 -59 c 258
 209 568 l 258
 209 680 266 749 377 749 c 256
 409 749 445 742 459 734 c 257
 439 663 l 257
 426 669 410 673 390 673 c 256
 335 673 307 639 307 576 c 258
 307 -51 l 258
 307 -166 247 -233 140 -233 c 256
EndSplineSet
EndChar

StartChar: j
Encoding: 106 106 323
Width: 260
VWidth: 0
Flags: HW
LayerCount: 2
Fore
SplineSet
22 -201 m 256
 -7 -201 -31 -197 -55 -189 c 257
 -39 -117 l 257
 -22 -124 1 -128 21 -128 c 256
 74 -128 88 -90 88 -25 c 258
 88 519 l 257
 177 519 l 257
 177 -31 l 258
 177 -147 128 -201 22 -201 c 256
135 621 m 256
 98 621 83 636 83 671 c 256
 83 706 98 720 135 720 c 256
 172 720 187 706 187 671 c 256
 187 636 172 621 135 621 c 256
EndSplineSet
EndChar

StartChar: k
Encoding: 107 107 326
Width: 512
VWidth: 0
Flags: HW
LayerCount: 2
Fore
SplineSet
281 0 m 1280
290 519 m 1280
78 0 m 257
 78 741 l 257
 167 741 l 257
 167 259 l 257
 374 519 l 257
 482 519 l 257
 287 288 l 257
 499 0 l 257
 391 0 l 257
 225 236 l 257
 167 168 l 257
 167 0 l 257
 78 0 l 257
EndSplineSet
EndChar

StartChar: kgreenlandic
Encoding: 312 312 329
Width: 512
VWidth: 0
Flags: HW
LayerCount: 2
Fore
SplineSet
78 0 m 257
 78 519 l 257
 167 519 l 257
 167 259 l 257
 358 488 l 258
 394 531 437 528 482 513 c 257
 469 440 l 257
 449 443 419 448 401 426 c 258
 287 288 l 257
 499 0 l 257
 391 0 l 257
 225 236 l 257
 167 168 l 257
 167 0 l 257
 78 0 l 257
EndSplineSet
EndChar

StartChar: l
Encoding: 108 108 330
Width: 255
VWidth: 0
Flags: HW
LayerCount: 2
Fore
SplineSet
83 0 m 257
 83 741 l 257
 172 741 l 257
 172 0 l 257
 83 0 l 257
EndSplineSet
EndChar

StartChar: less
Encoding: 60 60 335
Width: 696
VWidth: 0
Flags: HW
LayerCount: 2
Fore
SplineSet
617 30 m 257
 80 256 l 257
 80 317 l 257
 617 543 l 257
 617 467 l 257
 177 286 l 257
 617 106 l 257
 617 30 l 257
EndSplineSet
EndChar

StartChar: lessequal
Encoding: 8804 8804 336
Width: 697
VWidth: 0
Flags: HW
LayerCount: 2
Fore
SplineSet
617 120 m 257
 80 310 l 257
 80 371 l 257
 617 590 l 257
 617 514 l 257
 177 340 l 257
 617 196 l 257
 617 120 l 257
80 0 m 257
 80 70 l 257
 617 70 l 257
 617 0 l 257
 80 0 l 257
EndSplineSet
EndChar

StartChar: logicalnot
Encoding: 172 172 338
Width: 640
VWidth: 0
Flags: HW
LayerCount: 2
Fore
SplineSet
478 181 m 257
 478 367 l 257
 73 367 l 257
 73 441 l 257
 558 441 l 257
 558 181 l 257
 478 181 l 257
EndSplineSet
EndChar

StartChar: longs
Encoding: 383 383 339
Width: 270
VWidth: 0
Flags: HW
LayerCount: 2
Fore
SplineSet
91 0 m 257
 91 463 l 257
 25 463 l 257
 25 535 l 257
 91 535 l 257
 91 588 l 258
 91 717 135 776 257 776 c 256
 296 776 331 770 361 757 c 257
 337 681 l 257
 318 691 283 700 260 700 c 256
 200 700 180 676 180 588 c 258
 180 0 l 257
 91 0 l 257
EndSplineSet
EndChar

StartChar: lozenge
Encoding: 9674 9674 340
Width: 632
VWidth: 0
Flags: HW
LayerCount: 2
Fore
SplineSet
291 0 m 257
 71 349 l 257
 291 700 l 257
 340 700 l 257
 561 350 l 257
 340 0 l 257
 291 0 l 257
316 86 m 257
 481 350 l 257
 316 613 l 257
 150 350 l 257
 316 86 l 257
EndSplineSet
EndChar

StartChar: lslash
Encoding: 322 322 341
Width: 255
VWidth: 0
Flags: HW
LayerCount: 2
Fore
SplineSet
-14 262 m 257
 -14 339 l 257
 276 519 l 257
 276 442 l 257
 -14 262 l 257
EndSplineSet
Refer: 330 108 N 1 0 0 1 0 0 2
EndChar

StartChar: m
Encoding: 109 109 342
Width: 851
VWidth: 0
Flags: HW
LayerCount: 2
Fore
SplineSet
468 519 m 1280
78 0 m 257
 78 519 l 257
 163 519 l 257
 165 445 l 257
 204 493 258 532 326 532 c 256
 398 532 442 498 459 432 c 257
 503 488 555 532 628 532 c 256
 733 532 776 470 776 332 c 258
 776 0 l 257
 687 0 l 257
 687 308 l 258
 687 437 670 452 602 452 c 256
 554 452 516 417 472 353 c 257
 472 0 l 257
 382 0 l 257
 382 308 l 258
 382 429 365 452 298 452 c 256
 252 452 207 423 167 374 c 257
 167 0 l 257
 78 0 l 257
EndSplineSet
EndChar

StartChar: macron
Encoding: 175 175 343
Width: 600
VWidth: 0
Flags: HW
LayerCount: 2
Fore
SplineSet
265 519 m 1280
256 647 m 1280
116 613 m 257
 116 681 l 257
 414 681 l 257
 414 613 l 257
 116 613 l 257
EndSplineSet
EndChar

StartChar: macron.cap
Encoding: 65545 -1 344
Width: 600
VWidth: 0
Flags: HW
LayerCount: 2
Fore
SplineSet
272 690 m 1280
268 812 m 1280
116 777 m 257
 116 845 l 257
 414 845 l 257
 414 777 l 257
 116 777 l 257
EndSplineSet
EndChar

StartChar: minus
Encoding: 8722 8722 346
Width: 697
VWidth: 0
Flags: HW
LayerCount: 2
Fore
SplineSet
80 251 m 257
 80 321 l 257
 617 321 l 257
 617 251 l 257
 80 251 l 257
EndSplineSet
EndChar

StartChar: uni03BC
Encoding: 956 956 347
Width: 571
VWidth: 0
Flags: HW
LayerCount: 2
Fore
SplineSet
68 -193 m 257
 68 512 l 257
 153 512 l 257
 153 125 l 257
 181 90 230 68 278 68 c 256
 328 68 372 91 411 138 c 257
 411 512 l 257
 497 512 l 257
 497 0 l 257
 416 0 l 257
 411 58 l 257
 372 9 333 -15 279 -15 c 256
 230 -15 197 -8 153 25 c 257
 153 -193 l 257
 68 -193 l 257
EndSplineSet
EndChar

StartChar: multiply
Encoding: 215 215 348
Width: 696
VWidth: 0
Flags: HW
LayerCount: 2
Fore
SplineSet
150 38 m 257
 100 88 l 257
 299 286 l 257
 100 485 l 257
 150 534 l 257
 348 336 l 257
 547 534 l 257
 596 485 l 257
 398 286 l 257
 596 88 l 257
 547 38 l 257
 348 237 l 257
 150 38 l 257
EndSplineSet
EndChar

StartChar: n
Encoding: 110 110 349
Width: 568
VWidth: 0
Flags: HW
LayerCount: 2
Fore
SplineSet
295 0 m 1280
300 519 m 1280
78 0 m 257
 78 519 l 257
 163 519 l 257
 165 442 l 257
 206 490 266 532 335 532 c 256
 444 532 493 471 493 339 c 258
 493 0 l 257
 404 0 l 257
 404 314 l 258
 404 400 392 452 311 452 c 256
 261 452 208 416 167 371 c 257
 167 0 l 257
 78 0 l 257
EndSplineSet
EndChar

StartChar: nine
Encoding: 57 57 354
Width: 573
VWidth: 0
Flags: HW
LayerCount: 2
Fore
SplineSet
251 -13 m 256
 185 -13 126 4 83 38 c 257
 122 110 l 257
 160 79 198 64 251 64 c 256
 354 64 404 139 414 274 c 256
 414 278 415 296 415 301 c 257
 380 268 327 241 262 241 c 256
 130 241 49 319 49 465 c 256
 49 611 140 703 274 703 c 256
 438 703 511 592 512 400 c 257
 512 328 l 258
 512 109 418 -13 251 -13 c 256
275 319 m 256
 333 319 387 345 416 377 c 257
 416 415 l 257
 414 560 377 626 275 626 c 256
 189 626 141 560 141 467 c 256
 141 376 186 319 275 319 c 256
EndSplineSet
EndChar

StartChar: notequal
Encoding: 8800 8800 356
Width: 697
VWidth: 0
Flags: HW
LayerCount: 2
Fore
SplineSet
134 -40 m 257
 227 138 l 257
 80 138 l 257
 80 208 l 257
 263 208 l 257
 344 363 l 257
 80 363 l 257
 80 433 l 257
 381 433 l 257
 487 635 l 257
 568 635 l 257
 462 433 l 257
 617 433 l 257
 617 363 l 257
 425 363 l 257
 344 208 l 257
 617 208 l 257
 617 138 l 257
 307 138 l 257
 214 -40 l 257
 134 -40 l 257
EndSplineSet
EndChar

StartChar: numbersign
Encoding: 35 35 358
Width: 706
VWidth: 0
Flags: HW
LayerCount: 2
Fore
SplineSet
124 0 m 257
 175 192 l 257
 50 192 l 257
 50 252 l 257
 191 252 l 257
 238 424 l 257
 107 424 l 257
 107 485 l 257
 254 485 l 257
 305 676 l 257
 368 676 l 257
 317 485 l 257
 468 485 l 257
 520 676 l 257
 583 676 l 257
 532 485 l 257
 656 485 l 257
 656 424 l 257
 516 424 l 257
 470 252 l 257
 599 252 l 257
 599 192 l 257
 453 192 l 257
 402 0 l 257
 339 0 l 257
 389 192 l 257
 238 192 l 257
 187 0 l 257
 124 0 l 257
254 252 m 257
 406 252 l 257
 453 424 l 257
 301 424 l 257
 254 252 l 257
EndSplineSet
EndChar

StartChar: o
Encoding: 111 111 359
Width: 566
VWidth: 0
Flags: HW
LayerCount: 2
Fore
SplineSet
335 0 m 1280
284 519 m 1280
284 61 m 256
 379 61 422 134 422 256 c 258
 422 264 l 257
 421 386 377 458 283 458 c 256
 188 458 145 385 144 263 c 257
 144 256 l 258
 144 135 186 61 284 61 c 256
284 -13 m 256
 136 -13 53 88 53 256 c 258
 53 265 l 257
 54 434 138 532 283 532 c 256
 429 532 512 433 513 265 c 257
 513 256 l 258
 513 89 432 -13 284 -13 c 256
EndSplineSet
EndChar

StartChar: oe
Encoding: 339 339 366
Width: 896
VWidth: 0
Flags: HW
LayerCount: 2
Fore
SplineSet
851 297 m 258
 851 244 l 257
 513 243 l 257
 514 124 559 61 658 61 c 256
 712 61 751 79 784 118 c 257
 840 68 l 257
 800 17 745 -13 654 -13 c 256
 569 -13 496 28 467 96 c 257
 438 29 367 -13 284 -13 c 256
 136 -13 53 88 53 256 c 258
 53 265 l 257
 54 434 138 532 283 532 c 256
 366 532 439 490 467 422 c 257
 496 490 567 532 645 532 c 256
 782 532 851 449 851 297 c 258
515 314 m 257
 763 314 l 257
 762 405 725 459 643 459 c 256
 566 459 527 405 515 318 c 257
 515 314 l 257
144 256 m 258
 144 135 186 61 284 61 c 256
 379 61 422 134 422 256 c 258
 422 264 l 257
 421 386 377 458 283 458 c 256
 188 458 145 385 144 263 c 257
 144 256 l 258
EndSplineSet
EndChar

StartChar: ogonek
Encoding: 731 731 367
Width: 600
VWidth: 0
Flags: HW
LayerCount: 2
Fore
SplineSet
294 0 m 1280
244 -193 m 256
 184 -193 149 -162 149 -103 c 256
 149 -43 199 8 307 37 c 257
 342 0 l 257
 278 -21 218 -43 218 -90 c 256
 218 -113 231 -125 254 -125 c 256
 277 -125 294 -116 314 -106 c 257
 341 -159 l 257
 306 -181 279 -193 244 -193 c 256
EndSplineSet
EndChar

StartChar: one
Encoding: 49 49 372
Width: 525
VWidth: 0
Flags: HW
LayerCount: 2
Fore
SplineSet
264 0 m 261
 264 537 l 261
 108 536 l 257
 108 602 l 257
 188 607 275 624 292 690 c 257
 356 690 l 257
 356 0 l 257
 264 0 l 261
EndSplineSet
EndChar

StartChar: onehalf
Encoding: 189 189 373
Width: 950
VWidth: 0
Flags: HW
LayerCount: 2
Fore
SplineSet
557 -5 m 257
 557 62 l 257
 605 96 714 183 754 229 c 256
 774 252 783 275 782 298 c 257
 782 337 749 356 710 356 c 256
 675 356 644 338 618 302 c 257
 553 340 l 257
 588 393 640 419 712 419 c 256
 808 419 865 376 865 300 c 256
 865 245 841 210 786 161 c 256
 759 137 716 103 659 59 c 257
 879 59 l 257
 879 -5 l 257
 557 -5 l 257
150 264 m 257
 150 550 l 257
 41 550 l 257
 41 602 l 257
 125 604 152 623 168 679 c 257
 229 679 l 257
 229 264 l 257
 150 264 l 257
194 -25 m 257
 574 701 l 257
 655 701 l 257
 274 -25 l 257
 194 -25 l 257
EndSplineSet
EndChar

StartChar: onequarter
Encoding: 188 188 374
Width: 950
VWidth: 0
Flags: HW
LayerCount: 2
Fore
SplineSet
770 -4 m 257
 770 85 l 257
 537 85 l 257
 537 146 l 257
 779 411 l 257
 848 411 l 257
 848 146 l 257
 910 146 l 257
 910 85 l 257
 848 85 l 257
 848 -4 l 257
 770 -4 l 257
188 264 m 257
 188 550 l 257
 79 550 l 257
 79 602 l 257
 163 604 190 623 206 679 c 257
 267 679 l 257
 267 264 l 257
 188 264 l 257
235 -25 m 257
 615 701 l 257
 696 701 l 257
 315 -25 l 257
 235 -25 l 257
624 146 m 257
 770 146 l 257
 770 305 l 257
 624 146 l 257
EndSplineSet
EndChar

StartChar: uni00B9
Encoding: 185 185 375
Width: 434
VWidth: 0
Flags: HW
LayerCount: 2
Fore
SplineSet
198 320 m 257
 198 606 l 257
 89 606 l 257
 89 658 l 257
 173 660 200 679 216 735 c 257
 277 735 l 257
 277 320 l 257
 198 320 l 257
EndSplineSet
EndChar

StartChar: ordfeminine
Encoding: 170 170 377
Width: 380
VWidth: 0
Flags: HW
LayerCount: 2
Fore
SplineSet
149 390 m 256
 83 390 45 434 45 495 c 256
 45 563 83 599 176 609 c 257
 253 615 l 257
 253 627 l 258
 253 674 227 686 178 686 c 256
 141 686 116 673 101 648 c 257
 48 680 l 257
 68 713 103 742 179 742 c 256
 275 742 318 713 318 624 c 258
 318 399 l 257
 253 399 l 257
 253 434 l 257
 222 409 191 390 149 390 c 256
166 447 m 256
 197 447 225 469 253 492 c 257
 253 563 l 257
 205 558 l 257
 145 553 111 541 111 496 c 256
 111 461 129 447 166 447 c 256
EndSplineSet
EndChar

StartChar: ordmasculine
Encoding: 186 186 378
Width: 402
VWidth: 0
Flags: HW
LayerCount: 2
Fore
SplineSet
202 446 m 256
 267 446 287 493 287 565 c 256
 287 639 267 686 202 686 c 256
 143 686 117 650 117 565 c 256
 117 481 143 446 202 446 c 256
202 390 m 256
 102 390 50 451 50 565 c 256
 50 682 103 742 202 742 c 256
 300 742 353 680 353 565 c 256
 353 450 300 390 202 390 c 256
EndSplineSet
EndChar

StartChar: oslash
Encoding: 248 248 379
Width: 566
VWidth: 0
Flags: HW
LayerCount: 2
Fore
SplineSet
117 -73 m 257
 393 611 l 257
 451 611 l 257
 176 -73 l 257
 117 -73 l 257
EndSplineSet
Refer: 359 111 N 1 0 0 1 0 0 2
EndChar

StartChar: p
Encoding: 112 112 382
Width: 571
VWidth: 0
Flags: HW
LayerCount: 2
Fore
SplineSet
330 519 m 1280
78 -197 m 257
 78 519 l 257
 158 519 l 257
 164 461 l 257
 200 502 252 532 319 532 c 256
 450 532 518 422 518 258 c 258
 518 248 l 257
 516 94 442 -13 312 -13 c 256
 253 -13 207 8 167 47 c 257
 167 -197 l 257
 78 -197 l 257
294 62 m 256
 378 62 426 130 427 249 c 257
 427 257 l 258
 427 377 387 455 298 455 c 256
 242 455 197 425 167 388 c 257
 167 123 l 257
 202 85 243 62 294 62 c 256
EndSplineSet
EndChar

StartChar: paragraph
Encoding: 182 182 383
Width: 613
VWidth: 0
Flags: HW
LayerCount: 2
Fore
SplineSet
239 -193 m 257
 239 315 l 257
 161 315 93 350 56 413 c 256
 38 444 29 480 29 522 c 256
 29 647 123 727 263 727 c 258
 584 727 l 257
 584 662 l 257
 490 662 l 257
 490 -193 l 257
 412 -193 l 257
 412 662 l 257
 317 662 l 257
 317 -193 l 257
 239 -193 l 257
EndSplineSet
EndChar

StartChar: parenleft
Encoding: 40 40 384
Width: 389
VWidth: 0
Flags: HW
LayerCount: 2
Fore
SplineSet
254 -193 m 257
 130 -51 75 94 75 274 c 256
 75 458 130 598 254 742 c 257
 349 742 l 257
 222 619 154 457 154 274 c 256
 154 89 224 -71 349 -193 c 257
 254 -193 l 257
EndSplineSet
EndChar

StartChar: parenright
Encoding: 41 41 385
Width: 389
VWidth: 0
Flags: HW
LayerCount: 2
Fore
SplineSet
40 -193 m 257
 167 -68 235 92 235 274 c 256
 235 441 179 607 40 742 c 257
 135 742 l 257
 258 600 314 460 314 274 c 256
 314 95 262 -44 135 -193 c 257
 40 -193 l 257
EndSplineSet
EndChar

StartChar: partialdiff
Encoding: 8706 8706 386
Width: 612
VWidth: 0
Flags: HW
LayerCount: 2
Fore
SplineSet
245 -11 m 256
 119 -11 50 80 50 186 c 256
 50 376 180 496 319 496 c 256
 393 496 441 460 461 423 c 257
 463 423 l 257
 465 442 467 462 467 485 c 256
 467 592 416 654 324 654 c 256
 286 654 251 644 221 625 c 257
 197 691 l 257
 225 710 279 729 339 729 c 256
 477 729 562 633 562 473 c 256
 562 214 435 -11 245 -11 c 256
248 65 m 256
 340 65 419 176 450 341 c 257
 435 388 398 426 334 426 c 256
 212 426 147 292 147 183 c 256
 147 111 187 65 248 65 c 256
EndSplineSet
EndChar

StartChar: percent
Encoding: 37 37 388
Width: 1020
VWidth: 0
Flags: HW
LayerCount: 2
Fore
SplineSet
234 324 m 256
 300 324 327 362 327 474 c 256
 327 594 298 625 234 625 c 256
 171 625 142 594 142 474 c 256
 142 362 166 324 234 324 c 256
786 50 m 256
 871 50 879 92 879 201 c 256
 879 313 854 351 786 351 c 256
 721 351 693 313 693 201 c 256
 693 92 721 50 786 50 c 256
234 259 m 256
 108 259 55 338 55 474 c 256
 55 618 115 690 234 690 c 256
 359 690 414 607 414 474 c 256
 414 339 359 259 234 259 c 256
283 -25 m 257
 663 701 l 257
 744 701 l 257
 363 -25 l 257
 283 -25 l 257
786 -15 m 256
 666 -15 607 56 607 201 c 256
 607 344 666 416 786 416 c 256
 912 416 965 337 965 201 c 256
 965 57 905 -15 786 -15 c 256
EndSplineSet
EndChar

StartChar: period
Encoding: 46 46 389
Width: 269
VWidth: 0
Flags: HW
LayerCount: 2
Fore
SplineSet
135 -7 m 256
 88 -7 76 13 76 48 c 256
 76 87 92 103 135 103 c 256
 179 103 195 87 195 48 c 256
 195 7 176 -7 135 -7 c 256
EndSplineSet
EndChar

StartChar: periodcentered
Encoding: 183 183 390
Width: 270
VWidth: 0
Flags: HW
LayerCount: 2
Fore
SplineSet
-60 365 m 1280
135 309 m 256
 89 309 76 329 76 364 c 256
 76 403 93 419 135 419 c 256
 179 419 195 403 195 364 c 256
 195 323 177 309 135 309 c 256
EndSplineSet
EndChar

StartChar: perthousand
Encoding: 8240 8240 391
Width: 1449
VWidth: 0
Flags: HW
LayerCount: 2
Fore
SplineSet
234 324 m 256
 300 324 327 362 327 474 c 256
 327 594 298 625 234 625 c 256
 171 625 142 594 142 474 c 256
 142 362 166 324 234 324 c 256
786 50 m 256
 871 50 879 92 879 201 c 256
 879 313 854 351 786 351 c 256
 721 351 693 313 693 201 c 256
 693 92 721 50 786 50 c 256
234 259 m 256
 108 259 55 338 55 474 c 256
 55 618 115 690 234 690 c 256
 359 690 414 607 414 474 c 256
 414 339 359 259 234 259 c 256
283 -25 m 257
 663 701 l 257
 744 701 l 257
 363 -25 l 257
 283 -25 l 257
786 -15 m 256
 666 -15 607 56 607 201 c 256
 607 344 666 416 786 416 c 256
 912 416 965 337 965 201 c 256
 965 57 905 -15 786 -15 c 256
1215 50 m 256
 1300 50 1308 92 1308 201 c 256
 1308 313 1283 351 1215 351 c 256
 1150 351 1122 313 1122 201 c 256
 1122 92 1150 50 1215 50 c 256
1215 -15 m 256
 1095 -15 1036 56 1036 201 c 256
 1036 344 1095 416 1215 416 c 256
 1341 416 1394 337 1394 201 c 256
 1394 57 1334 -15 1215 -15 c 256
EndSplineSet
EndChar

StartChar: pi
Encoding: 960 960 392
Width: 666
VWidth: 0
Flags: HW
LayerCount: 2
Fore
SplineSet
537 -8 m 256
 471 -8 439 10 423 53 c 256
 415 75 410 106 410 147 c 258
 410 444 l 257
 236 444 l 257
 236 140 l 258
 236 77 234 33 224 0 c 257
 126 0 l 257
 142 46 150 95 150 146 c 258
 150 444 l 257
 123 444 64 436 31 420 c 257
 5 481 l 257
 34 496 89 512 159 512 c 258
 621 512 l 257
 621 444 l 257
 495 444 l 257
 495 149 l 258
 495 80 504 60 549 60 c 256
 568 60 586 63 601 69 c 257
 622 3 l 257
 596 -4 568 -8 537 -8 c 256
EndSplineSet
EndChar

StartChar: plus
Encoding: 43 43 393
Width: 645
VWidth: 0
Flags: HW
LayerCount: 2
Fore
SplineSet
282 39 m 257
 282 269 l 257
 63 269 l 257
 63 346 l 257
 282 346 l 257
 282 569 l 257
 362 569 l 257
 362 346 l 257
 581 346 l 257
 581 269 l 257
 362 269 l 257
 362 39 l 257
 282 39 l 257
EndSplineSet
EndChar

StartChar: plusminus
Encoding: 177 177 394
Width: 696
VWidth: 0
Flags: HW
LayerCount: 2
Fore
SplineSet
313 161 m 257
 313 395 l 257
 80 395 l 257
 80 465 l 257
 313 465 l 257
 313 698 l 257
 383 698 l 257
 383 465 l 257
 617 465 l 257
 617 395 l 257
 383 395 l 257
 383 161 l 257
 313 161 l 257
80 0 m 257
 80 70 l 257
 617 70 l 257
 617 0 l 257
 80 0 l 257
EndSplineSet
EndChar

StartChar: product
Encoding: 8719 8719 395
Width: 767
VWidth: 0
Flags: HW
LayerCount: 2
Fore
SplineSet
87 -230 m 257
 87 700 l 257
 680 700 l 257
 680 -230 l 257
 581 -230 l 257
 581 615 l 257
 185 615 l 257
 185 -230 l 257
 87 -230 l 257
EndSplineSet
EndChar

StartChar: q
Encoding: 113 113 396
Width: 571
VWidth: 0
Flags: HW
LayerCount: 2
Fore
SplineSet
401 -197 m 257
 401 50 l 257
 365 13 314 -13 252 -13 c 256
 123 -13 53 87 53 249 c 258
 53 259 l 257
 55 419 125 532 257 532 c 256
 318 532 368 505 404 469 c 257
 410 519 l 257
 490 519 l 257
 490 -197 l 257
 401 -197 l 257
271 62 m 256
 322 62 363 86 401 128 c 257
 401 398 l 257
 370 431 325 456 274 456 c 256
 188 456 145 380 144 258 c 257
 144 250 l 258
 144 128 184 62 271 62 c 256
EndSplineSet
EndChar

StartChar: question
Encoding: 63 63 397
Width: 512
VWidth: 0
Flags: HW
LayerCount: 2
Fore
SplineSet
174 185 m 257
 174 319 l 257
 247 354 296 384 323 412 c 256
 350 439 364 470 364 503 c 256
 364 570 320 610 238 610 c 256
 168 610 130 580 107 541 c 257
 33 589 l 257
 66 649 129 690 237 690 c 256
 372 690 459 626 459 513 c 256
 459 451 431 403 383 361 c 256
 359 340 318 314 259 282 c 257
 259 185 l 257
 174 185 l 257
217 -7 m 256
 171 -7 158 13 158 48 c 256
 158 87 175 103 217 103 c 256
 261 103 277 87 277 48 c 256
 277 7 259 -7 217 -7 c 256
EndSplineSet
EndChar

StartChar: questiondown
Encoding: 191 191 398
Width: 512
VWidth: 0
Flags: HW
LayerCount: 2
Fore
SplineSet
275 -193 m 256
 138 -193 53 -128 53 -7 c 256
 53 59 80 112 129 157 c 256
 153 180 195 208 253 242 c 257
 253 338 l 257
 338 338 l 257
 338 205 l 257
 280 170 239 144 215 124 c 256
 167 85 148 50 148 0 c 256
 148 -74 192 -113 274 -113 c 256
 345 -113 383 -83 405 -44 c 257
 479 -92 l 257
 442 -159 374 -193 275 -193 c 256
295 417 m 256
 252 417 235 433 235 472 c 256
 235 513 254 527 295 527 c 256
 342 527 354 507 354 472 c 256
 354 433 338 417 295 417 c 256
EndSplineSet
EndChar

StartChar: quotedbl
Encoding: 34 34 399
Width: 451
VWidth: 0
Flags: HW
LayerCount: 2
Fore
SplineSet
105 407 m 257
 85 676 l 257
 187 676 l 257
 167 407 l 257
 105 407 l 257
284 407 m 257
 264 676 l 257
 366 676 l 257
 346 407 l 257
 284 407 l 257
EndSplineSet
EndChar

StartChar: quotedblbase
Encoding: 8222 8222 400
Width: 471
VWidth: 0
Flags: HW
PickledData: "(dp1
S'com.fontlab.hintData'
p2
(dp3
S'vhints'
p4
((dp5
S'position'
p6
I130
sS'width'
p7
I65
s(dp8
g6
I330
sg7
I65
stp9
sS'hhints'
p10
((dp11
g6
I-7
sg7
I110
stp12
ss."
HStem: -7 110<124.5 130 324.5 330>
VStem: 130 65<-17.5 48.5> 330 65<-18 48.5>
LayerCount: 2
Fore
SplineSet
395 38 m 256
 395 -2 389 -38 377 -71 c 256
 365 -104 353 -128 340 -143 c 257
 289 -143 l 257
 300 -129 310 -108 318 -81 c 256
 326 -54 330 -29 330 -7 c 257
 311 -7 296 -3 288 6 c 256
 280 15 276 29 276 48 c 256
 276 66 281 80 290 89 c 256
 299 98 314 103 335 103 c 256
 357 103 373 97 382 86 c 256
 391 75 395 59 395 38 c 256
195 38 m 256
 195 -2 189 -38 177 -71 c 256
 165 -104 153 -128 140 -143 c 257
 89 -143 l 257
 100 -129 110 -108 118 -80 c 256
 126 -52 130 -28 130 -7 c 257
 111 -7 96 -3 88 6 c 256
 80 15 76 29 76 48 c 256
 76 66 81 80 90 89 c 256
 99 98 114 103 135 103 c 256
 157 103 173 97 182 86 c 256
 191 75 195 59 195 38 c 256
EndSplineSet
EndChar

StartChar: quotedblleft
Encoding: 8220 8220 401
Width: 471
VWidth: 0
Flags: HW
PickledData: "(dp1
S'com.fontlab.hintData'
p2
(dp3
S'vhints'
p4
((dp5
S'position'
p6
I76
sS'width'
p7
I65
s(dp8
g6
I276
sg7
I65
stp9
sS'hhints'
p10
((dp11
g6
I430
sg7
I110
s(dp12
g6
I656
sg7
I20
stp13
ss."
HStem: 430 110<141 146.5 341 346.5> 656 20<131 182 182 182 331 382 382 382>
VStem: 76 65<484.5 550.5> 276 65<484.5 550>
LayerCount: 2
Fore
SplineSet
395 485 m 256
 395 467 391 453 382 444 c 256
 373 435 357 430 336 430 c 256
 314 430 299 435 290 446 c 256
 281 457 276 474 276 495 c 256
 276 528 282 561 292 596 c 256
 302 631 315 657 331 676 c 257
 382 676 l 257
 371 662 361 640 353 612 c 256
 345 584 341 560 341 540 c 257
 360 540 374 536 382 527 c 256
 390 518 395 504 395 485 c 256
195 485 m 256
 195 467 191 453 182 444 c 256
 173 435 157 430 136 430 c 256
 114 430 99 435 90 446 c 256
 81 457 76 474 76 495 c 256
 76 530 82 563 92 596 c 256
 102 629 115 656 131 676 c 257
 182 676 l 257
 171 662 161 642 153 614 c 256
 145 586 141 561 141 540 c 257
 160 540 174 536 182 527 c 256
 190 518 195 504 195 485 c 256
EndSplineSet
EndChar

StartChar: quotedblright
Encoding: 8221 8221 402
Width: 471
VWidth: 0
Flags: HW
PickledData: "(dp1
S'com.fontlab.hintData'
p2
(dp3
S'vhints'
p4
((dp5
S'position'
p6
I130
sS'width'
p7
I65
s(dp8
g6
I330
sg7
I65
stp9
sS'hhints'
p10
((dp11
g6
I580
sg7
I110
stp12
ss."
HStem: 580 110<124.5 130 324.5 330>
VStem: 130 65<569.5 635.5> 330 65<569 635.5>
LayerCount: 2
Fore
SplineSet
395 625 m 256
 395 585 389 549 377 516 c 256
 365 483 353 459 340 444 c 257
 289 444 l 257
 300 458 310 479 318 506 c 256
 326 533 330 558 330 580 c 257
 311 580 296 584 288 593 c 256
 280 602 276 616 276 635 c 256
 276 653 281 667 290 676 c 256
 299 685 314 690 335 690 c 256
 357 690 373 685 382 674 c 256
 391 663 395 646 395 625 c 256
195 625 m 256
 195 585 189 549 177 516 c 256
 165 483 153 459 140 444 c 257
 89 444 l 257
 100 458 110 479 118 507 c 256
 126 535 130 559 130 580 c 257
 111 580 96 584 88 593 c 256
 80 602 76 616 76 635 c 256
 76 653 81 667 90 676 c 256
 99 685 114 690 135 690 c 256
 157 690 173 685 182 674 c 256
 191 663 195 646 195 625 c 256
EndSplineSet
EndChar

StartChar: quoteleft
Encoding: 8216 8216 403
Width: 270
VWidth: 0
Flags: HW
PickledData: "(dp1
S'com.fontlab.hintData'
p2
(dp3
S'vhints'
p4
((dp5
S'position'
p6
I76
sS'width'
p7
I65
stp8
sS'hhints'
p9
((dp10
g6
I430
sg7
I246
stp11
ss."
HStem: 430 246<131 146.5>
VStem: 76 65<484.5 550.5>
LayerCount: 2
Fore
SplineSet
195 485 m 256
 195 467 191 453 182 444 c 256
 173 435 157 430 136 430 c 256
 114 430 99 435 90 446 c 256
 81 457 76 474 76 495 c 256
 76 530 82 563 92 596 c 256
 102 629 115 656 131 676 c 257
 182 676 l 257
 171 662 161 642 153 614 c 256
 145 586 141 561 141 540 c 257
 160 540 174 536 182 527 c 256
 190 518 195 504 195 485 c 256
EndSplineSet
EndChar

StartChar: quoteright
Encoding: 8217 8217 404
Width: 270
VWidth: 0
Flags: HW
PickledData: "(dp1
S'com.fontlab.hintData'
p2
(dp3
S'vhints'
p4
((dp5
S'position'
p6
I130
sS'width'
p7
I65
stp8
sS'hhints'
p9
((dp10
g6
I444
sg7
I246
stp11
ss."
HStem: 444 246<124.5 140 89 146>
VStem: 130 65<569.5 635.5>
LayerCount: 2
Fore
SplineSet
195 625 m 256
 195 585 189 549 177 516 c 256
 165 483 153 459 140 444 c 257
 89 444 l 257
 100 458 110 479 118 507 c 256
 126 535 130 559 130 580 c 257
 111 580 96 584 88 593 c 256
 80 602 76 616 76 635 c 256
 76 653 81 667 90 676 c 256
 99 685 114 690 135 690 c 256
 157 690 173 685 182 674 c 256
 191 663 195 646 195 625 c 256
EndSplineSet
EndChar

StartChar: quotesinglbase
Encoding: 8218 8218 405
Width: 270
VWidth: 0
Flags: HW
PickledData: "(dp1
S'com.fontlab.hintData'
p2
(dp3
S'vhints'
p4
((dp5
S'position'
p6
I130
sS'width'
p7
I65
stp8
sS'hhints'
p9
((dp10
g6
I-143
sg7
I246
stp11
ss."
HStem: -143 246<124.5 140 89 146>
VStem: 130 65<-17.5 48.5>
LayerCount: 2
Fore
SplineSet
195 38 m 256
 195 -2 189 -38 177 -71 c 256
 165 -104 153 -128 140 -143 c 257
 89 -143 l 257
 100 -129 110 -108 118 -80 c 256
 126 -52 130 -28 130 -7 c 257
 111 -7 96 -3 88 6 c 256
 80 15 76 29 76 48 c 256
 76 66 81 80 90 89 c 256
 99 98 114 103 135 103 c 256
 157 103 173 97 182 86 c 256
 191 75 195 59 195 38 c 256
EndSplineSet
EndChar

StartChar: quotesingle
Encoding: 39 39 406
Width: 271
VWidth: 0
Flags: HW
LayerCount: 2
Fore
SplineSet
105 407 m 257
 85 676 l 257
 187 676 l 257
 167 407 l 257
 105 407 l 257
EndSplineSet
EndChar

StartChar: r
Encoding: 114 114 407
Width: 374
VWidth: 0
Flags: HW
LayerCount: 2
Fore
SplineSet
125 0 m 1280
258 519 m 1280
78 0 m 257
 78 519 l 257
 163 519 l 257
 166 438 l 257
 204 485 251 528 315 528 c 256
 333 528 349 524 360 519 c 257
 344 435 l 257
 338 437 311 440 301 440 c 256
 249 440 211 417 167 364 c 257
 167 0 l 257
 78 0 l 257
EndSplineSet
EndChar

StartChar: radical
Encoding: 8730 8730 409
Width: 562
VWidth: 0
Flags: HW
LayerCount: 2
Fore
SplineSet
254 -12 m 257
 110 319 l 257
 53 283 l 257
 23 335 l 257
 152 416 l 257
 291 96 l 257
 468 729 l 257
 539 729 l 257
 330 -12 l 257
 254 -12 l 257
EndSplineSet
EndChar

StartChar: registered
Encoding: 174 174 413
Width: 905
VWidth: 0
Flags: HW
LayerCount: 2
Fore
SplineSet
314 98 m 257
 314 513 l 257
 448 513 l 258
 546 513 601 485 601 393 c 256
 601 321 569 287 518 272 c 257
 632 98 l 257
 552 98 l 257
 446 262 l 257
 382 262 l 257
 382 98 l 257
 314 98 l 257
453 -33 m 256
 570 -33 678 30 737 132 c 256
 766 183 781 238 781 298 c 256
 781 417 718 525 617 584 c 256
 566 613 511 628 453 628 c 256
 335 628 228 565 169 463 c 256
 140 412 125 357 125 298 c 256
 125 179 186 72 288 12 c 256
 339 -18 394 -33 453 -33 c 256
453 -96 m 256
 310 -96 182 -22 112 100 c 256
 77 161 60 227 60 298 c 256
 60 442 133 569 255 638 c 256
 316 673 382 690 453 690 c 256
 597 690 724 617 793 495 c 256
 828 434 845 368 845 298 c 256
 845 154 772 25 651 -44 c 256
 590 -79 524 -96 453 -96 c 256
382 321 m 257
 445 321 l 258
 512 321 530 339 530 390 c 256
 530 437 509 455 448 455 c 258
 382 455 l 257
 382 321 l 257
EndSplineSet
EndChar

StartChar: ring
Encoding: 730 730 414
Width: 600
VWidth: 0
Flags: HW
LayerCount: 2
Fore
SplineSet
264 519 m 1280
260 728 m 1280
264 612 m 256
 296 612 312 628 312 661 c 256
 312 694 296 710 264 710 c 256
 232 710 217 694 217 661 c 256
 217 628 232 612 264 612 c 256
264 565 m 256
 196 565 168 605 168 661 c 256
 168 718 197 757 264 757 c 256
 332 757 361 720 361 661 c 256
 361 603 331 565 264 565 c 256
EndSplineSet
EndChar

StartChar: ring.cap
Encoding: 65546 -1 415
Width: 600
VWidth: 0
Flags: HW
LayerCount: 2
Fore
SplineSet
263 690 m 1280
264 876 m 1280
264 755 m 256
 298 755 315 772 315 807 c 256
 315 841 298 859 264 859 c 256
 230 859 214 841 214 807 c 256
 214 772 230 755 264 755 c 256
264 715 m 256
 198 715 172 754 172 807 c 256
 172 863 200 899 264 899 c 256
 328 899 357 863 357 807 c 256
 357 751 328 715 264 715 c 256
EndSplineSet
EndChar

StartChar: s
Encoding: 115 115 417
Width: 499
VWidth: 0
Flags: HW
LayerCount: 2
Fore
SplineSet
253 0 m 1280
261 519 m 1280
250 -13 m 256
 150 -13 76 35 55 101 c 256
 53 105 52 108 51 112 c 257
 128 136 l 257
 145 84 191 60 251 60 c 256
 319 60 362 87 362 137 c 256
 362 187 318 204 241 223 c 257
 117 251 64 297 64 379 c 256
 64 468 137 532 253 532 c 256
 350 532 418 483 436 422 c 256
 438 418 439 414 440 411 c 257
 363 387 l 257
 347 432 304 459 252 459 c 256
 195 459 152 434 152 382 c 256
 152 337 180 320 259 302 c 257
 379 273 449 243 449 142 c 256
 449 43 369 -13 250 -13 c 256
EndSplineSet
EndChar

StartChar: section
Encoding: 167 167 425
Width: 527
VWidth: 0
Flags: HW
LayerCount: 2
Fore
SplineSet
254 -179 m 256
 169 -179 106 -155 67 -107 c 257
 129 -60 l 257
 160 -93 201 -110 252 -110 c 256
 327 -110 359 -86 359 -37 c 256
 359 -20 350 -4 334 11 c 257
 317 25 286 45 239 69 c 257
 134 126 99 155 73 196 c 256
 60 216 53 240 53 266 c 256
 53 334 103 380 172 421 c 257
 112 463 84 498 84 545 c 256
 84 633 148 690 277 690 c 256
 365 690 427 666 464 618 c 257
 402 571 l 257
 374 604 333 620 279 620 c 256
 208 620 172 596 172 549 c 256
 172 530 181 513 199 499 c 256
 217 485 245 466 283 445 c 256
 339 414 380 389 404 369 c 256
 453 329 475 289 475 244 c 256
 475 178 437 139 357 90 c 257
 422 47 447 9 447 -33 c 256
 447 -131 370 -179 254 -179 c 256
294 128 m 257
 353 167 393 192 393 240 c 256
 393 267 373 294 335 322 c 256
 316 336 283 357 236 383 c 257
 177 347 135 312 135 269 c 256
 135 233 177 192 245 155 c 258
 294 128 l 257
EndSplineSet
EndChar

StartChar: semicolon
Encoding: 59 59 426
Width: 270
VWidth: 0
Flags: HW
LayerCount: 2
Fore
SplineSet
89 -143 m 257
 112 -113 130 -52 130 -7 c 257
 91 -7 76 9 76 48 c 256
 76 85 93 103 135 103 c 256
 179 103 195 80 195 38 c 256
 195 -42 165 -112 140 -143 c 257
 89 -143 l 257
135 402 m 256
 89 402 76 422 76 457 c 256
 76 496 93 512 135 512 c 256
 179 512 195 496 195 457 c 256
 195 415 177 402 135 402 c 256
EndSplineSet
EndChar

StartChar: seven
Encoding: 55 55 427
Width: 573
VWidth: 0
Flags: HW
LayerCount: 2
Fore
SplineSet
157 0 m 261
 420 608 l 261
 46 608 l 257
 46 690 l 257
 518 690 l 257
 518 606 l 257
 260 0 l 257
 157 0 l 261
EndSplineSet
EndChar

StartChar: six
Encoding: 54 54 428
Width: 573
VWidth: 0
Flags: HW
LayerCount: 2
Fore
SplineSet
300 -13 m 256
 146 -13 62 100 62 307 c 258
 62 365 l 257
 63 575 168 703 327 703 c 256
 392 703 446 684 486 652 c 257
 444 581 l 257
 408 610 376 626 327 626 c 256
 223 626 166 538 159 394 c 257
 196 423 253 449 320 449 c 256
 447 449 527 366 527 227 c 256
 527 80 442 -13 300 -13 c 256
302 64 m 256
 390 64 434 130 434 225 c 256
 434 316 388 373 298 373 c 256
 241 373 188 348 158 318 c 257
 158 290 l 257
 159 137 211 64 302 64 c 256
EndSplineSet
EndChar

StartChar: slash
Encoding: 47 47 429
Width: 456
VWidth: 0
Flags: HW
LayerCount: 2
Fore
SplineSet
19 -68 m 257
 348 774 l 257
 416 774 l 257
 87 -68 l 257
 19 -68 l 257
EndSplineSet
EndChar

StartChar: uni00AD
Encoding: 173 173 430
Width: 403
VWidth: 0
Flags: HW
LayerCount: 2
Fore
SplineSet
50 215 m 257
 50 299 l 257
 354 299 l 257
 354 215 l 257
 50 215 l 257
EndSplineSet
EndChar

StartChar: sterling
Encoding: 163 163 432
Width: 617
VWidth: 0
Flags: HW
LayerCount: 2
Fore
SplineSet
55 0 m 257
 55 76 l 257
 100 85 123 126 135 177 c 256
 140 202 143 239 143 287 c 257
 67 287 l 257
 67 351 l 257
 140 351 l 257
 135 375 l 257
 121 427 114 472 114 510 c 256
 114 623 203 690 343 690 c 256
 443 690 515 654 559 583 c 257
 484 539 l 257
 455 586 406 616 343 616 c 256
 255 616 207 572 207 496 c 256
 207 471 211 443 219 412 c 256
 227 378 232 358 232 351 c 257
 418 351 l 257
 418 287 l 257
 236 287 l 257
 236 173 208 111 157 76 c 257
 566 76 l 257
 566 0 l 257
 55 0 l 257
EndSplineSet
EndChar

StartChar: summation
Encoding: 8721 8721 433
Width: 669
VWidth: 0
Flags: HW
LayerCount: 2
Fore
SplineSet
30 -230 m 257
 30 -181 l 257
 368 239 l 257
 52 645 l 257
 52 700 l 257
 615 700 l 257
 615 620 l 257
 182 620 l 257
 476 241 l 257
 164 -150 l 257
 639 -150 l 257
 639 -230 l 257
 30 -230 l 257
EndSplineSet
EndChar

StartChar: t
Encoding: 116 116 434
Width: 351
VWidth: 0
Flags: HW
LayerCount: 2
Fore
SplineSet
155 302 m 1280
225 0 m 1280
139 655 m 1280
237 -13 m 256
 140 -13 98 40 98 147 c 258
 98 448 l 257
 20 448 l 257
 20 519 l 257
 98 519 l 257
 98 655 l 257
 187 655 l 257
 187 519 l 257
 305 519 l 257
 305 448 l 257
 187 448 l 257
 187 157 l 258
 187 90 200 61 250 61 c 256
 270 61 290 65 306 72 c 257
 324 4 l 257
 299 -7 267 -13 237 -13 c 256
EndSplineSet
EndChar

StartChar: thorn
Encoding: 254 254 438
Width: 571
VWidth: 0
Flags: HW
LayerCount: 2
Fore
SplineSet
330 519 m 1280
78 -197 m 257
 78 690 l 257
 167 690 l 257
 167 461 l 257
 203 502 252 532 319 532 c 256
 450 532 518 422 518 258 c 258
 518 248 l 257
 516 94 442 -13 312 -13 c 256
 253 -13 207 8 167 47 c 257
 167 -197 l 257
 78 -197 l 257
294 62 m 256
 378 62 426 130 427 249 c 257
 427 257 l 258
 427 377 387 455 298 455 c 256
 242 455 197 425 167 388 c 257
 167 123 l 257
 202 85 243 62 294 62 c 256
EndSplineSet
EndChar

StartChar: three
Encoding: 51 51 439
Width: 573
VWidth: 0
Flags: HW
LayerCount: 2
Fore
SplineSet
267 -13 m 260
 166 -13 79 36 56 117 c 261
 53 126 l 261
 135 155 l 261
 149 102 198 65 266 65 c 260
 360 65 407 109 407 198 c 260
 407 282 360 322 263 322 c 262
 199 322 l 261
 199 399 l 261
 258 399 l 262
 347 399 395 441 395 517 c 260
 395 589 350 625 275 625 c 260
 208 625 160 591 141 532 c 261
 59 561 l 261
 60 564 61 567 62 571 c 260
 87 651 169 703 279 703 c 260
 410 703 491 635 491 524 c 260
 491 440 445 388 367 364 c 261
 448 351 502 295 502 195 c 260
 502 60 411 -13 267 -13 c 260
EndSplineSet
EndChar

StartChar: threequarters
Encoding: 190 190 440
Width: 950
VWidth: 0
Flags: HW
LayerCount: 2
Fore
SplineSet
203 255 m 256
 137 255 78 283 51 324 c 257
 116 360 l 257
 134 337 165 318 202 318 c 256
 263 318 290 342 290 389 c 256
 290 434 258 453 198 453 c 258
 154 453 l 257
 154 515 l 257
 192 515 l 258
 248 515 283 536 283 575 c 256
 283 610 254 626 212 626 c 256
 174 626 144 610 121 578 c 257
 56 615 l 257
 82 652 106 668 147 680 c 257
 168 685 191 688 217 688 c 256
 321 688 367 640 367 583 c 256
 367 538 344 506 299 489 c 257
 342 473 374 437 374 386 c 256
 374 300 311 255 203 255 c 256
770 -5 m 257
 770 84 l 257
 537 84 l 257
 537 145 l 257
 779 410 l 257
 848 410 l 257
 848 145 l 257
 910 145 l 257
 910 84 l 257
 848 84 l 257
 848 -5 l 257
 770 -5 l 257
286 -25 m 257
 666 701 l 257
 747 701 l 257
 366 -25 l 257
 286 -25 l 257
624 145 m 257
 770 145 l 257
 770 304 l 257
 624 145 l 257
EndSplineSet
EndChar

StartChar: uni00B3
Encoding: 179 179 441
Width: 434
VWidth: 0
Flags: HW
LayerCount: 2
Fore
SplineSet
193 311 m 256
 127 311 68 339 41 380 c 257
 106 416 l 257
 124 393 155 374 192 374 c 256
 253 374 280 398 280 445 c 256
 280 490 248 509 188 509 c 258
 144 509 l 257
 144 571 l 257
 182 571 l 258
 238 571 273 592 273 631 c 256
 273 666 244 682 202 682 c 256
 164 682 134 666 111 634 c 257
 46 671 l 257
 72 708 97 724 138 736 c 257
 159 741 181 744 207 744 c 256
 311 744 357 696 357 639 c 256
 357 594 334 562 289 545 c 257
 332 529 364 493 364 442 c 256
 364 356 301 311 193 311 c 256
EndSplineSet
EndChar

StartChar: tilde
Encoding: 732 732 442
Width: 600
VWidth: 0
Flags: HW
LayerCount: 2
Fore
SplineSet
283 519 m 1280
335 590 m 256
 292 590 269 607 249 625 c 256
 229 644 214 661 187 661 c 256
 154 661 143 636 140 596 c 257
 81 596 l 257
 85 678 128 724 193 724 c 256
 229 724 254 707 277 689 c 256
 300 672 318 655 342 655 c 256
 371 655 386 676 389 718 c 257
 448 718 l 257
 442 632 404 590 335 590 c 256
EndSplineSet
EndChar

StartChar: tilde.cap
Encoding: 65547 -1 443
Width: 600
VWidth: 0
Flags: HW
LayerCount: 2
Fore
SplineSet
271 690 m 1280
335 754 m 256
 292 754 269 771 249 790 c 256
 229 808 214 825 187 825 c 256
 154 825 143 800 140 760 c 257
 81 760 l 257
 85 841 128 888 193 888 c 256
 229 888 254 871 277 854 c 256
 300 836 318 819 342 819 c 256
 371 819 386 840 389 882 c 257
 448 882 l 257
 442 796 404 754 335 754 c 256
EndSplineSet
EndChar

StartChar: tildecomb
Encoding: 771 771 444
Width: 600
VWidth: 0
Flags: HW
LayerCount: 2
Fore
SplineSet
70 590 m 256
 27 590 4 607 -16 625 c 256
 -36 644 -51 661 -78 661 c 256
 -111 661 -123 636 -125 596 c 257
 -184 596 l 257
 -180 678 -138 724 -72 724 c 256
 -36 724 -10 707 12 689 c 257
 35 672 53 655 77 655 c 256
 105 655 121 676 124 718 c 257
 183 718 l 257
 178 638 142 590 70 590 c 256
EndSplineSet
EndChar

StartChar: trademark
Encoding: 8482 8482 445
Width: 774
VWidth: 0
Flags: HW
LayerCount: 2
Fore
SplineSet
399 327 m 257
 399 676 l 257
 479 676 l 257
 564 508 l 257
 652 676 l 257
 730 676 l 257
 730 327 l 257
 663 327 l 257
 663 563 l 257
 585 416 l 257
 542 416 l 257
 466 562 l 257
 466 327 l 257
 399 327 l 257
145 327 m 257
 145 614 l 257
 37 614 l 257
 37 676 l 257
 321 676 l 257
 321 614 l 257
 214 614 l 257
 214 327 l 257
 145 327 l 257
EndSplineSet
EndChar

StartChar: two
Encoding: 50 50 446
Width: 573
VWidth: 0
Flags: HW
LayerCount: 2
Fore
SplineSet
64 0 m 257
 64 84 l 257
 112 125 240 258 261 279 c 256
 321 338 360 383 381 424 c 256
 395 450 401 478 401 507 c 256
 401 575 355 624 283 624 c 256
 203 624 159 584 141 517 c 257
 59 546 l 257
 60 549 60 552 61 555 c 256
 89 647 168 703 285 703 c 256
 412 703 497 631 497 512 c 256
 497 460 483 414 452 370 c 256
 432 340 405 307 370 271 c 256
 352 253 236 133 173 79 c 257
 520 79 l 257
 520 0 l 257
 64 0 l 257
EndSplineSet
EndChar

StartChar: uni00B2
Encoding: 178 178 447
Width: 434
VWidth: 0
Flags: HW
LayerCount: 2
Fore
SplineSet
56 320 m 257
 56 387 l 257
 104 421 213 508 253 554 c 256
 273 577 282 600 281 623 c 257
 281 662 248 681 209 681 c 256
 174 681 143 663 117 627 c 257
 52 665 l 257
 87 718 139 744 211 744 c 256
 307 744 364 701 364 625 c 256
 364 570 340 535 285 486 c 256
 258 462 215 428 158 384 c 257
 378 384 l 257
 378 320 l 257
 56 320 l 257
EndSplineSet
EndChar

StartChar: u
Encoding: 117 117 448
Width: 568
VWidth: 0
Flags: HW
LayerCount: 2
Fore
SplineSet
448 0 m 1280
298 519 m 1280
234 -13 m 256
 121 -13 75 51 75 189 c 258
 75 519 l 257
 164 519 l 257
 164 212 l 258
 164 100 181 67 253 67 c 256
 307 67 360 101 401 149 c 257
 401 519 l 257
 490 519 l 257
 490 0 l 257
 405 0 l 257
 403 77 l 257
 360 25 300 -13 234 -13 c 256
EndSplineSet
EndChar

StartChar: underscore
Encoding: 95 95 459
Width: 481
VWidth: 0
Flags: HW
LayerCount: 2
Fore
SplineSet
-2 -105 m 257
 -2 -45 l 257
 484 -45 l 257
 484 -105 l 257
 -2 -105 l 257
EndSplineSet
EndChar

StartChar: uni0302
Encoding: 770 770 473
Width: 600
VWidth: 0
Flags: HW
LayerCount: 2
Fore
SplineSet
-163 590 m 257
 -51 766 l 257
 52 766 l 257
 163 590 l 257
 90 590 l 257
 0 706 l 257
 -90 590 l 257
 -163 590 l 257
EndSplineSet
EndChar

StartChar: uni0304
Encoding: 772 772 474
Width: 600
VWidth: 0
Flags: HW
LayerCount: 2
Fore
SplineSet
-149 613 m 257
 -149 681 l 257
 149 681 l 257
 149 613 l 257
 -149 613 l 257
EndSplineSet
EndChar

StartChar: uni0306
Encoding: 774 774 475
Width: 600
VWidth: 0
Flags: HW
LayerCount: 2
Fore
SplineSet
-1 589 m 256
 -100 589 -160 648 -160 727 c 257
 -98 727 l 257
 -89 687 -57 666 -2 666 c 256
 64 666 90 686 98 727 c 257
 160 727 l 257
 160 646 100 589 -1 589 c 256
EndSplineSet
EndChar

StartChar: uni0307
Encoding: 775 775 476
Width: 600
VWidth: 0
Flags: HW
LayerCount: 2
Fore
SplineSet
0 590 m 256
 -45 590 -56 611 -56 646 c 256
 -56 685 -43 702 0 702 c 256
 43 702 57 685 57 646 c 256
 57 605 41 590 0 590 c 256
EndSplineSet
EndChar

StartChar: uni0308
Encoding: 776 776 477
Width: 600
VWidth: 0
Flags: HW
LayerCount: 2
Fore
SplineSet
-97 590 m 256
 -138 590 -149 610 -149 642 c 256
 -149 677 -136 694 -97 694 c 256
 -57 694 -44 678 -44 642 c 256
 -44 603 -58 590 -97 590 c 256
96 590 m 256
 55 590 44 610 44 642 c 256
 44 677 57 694 96 694 c 256
 136 694 149 678 149 642 c 256
 149 603 135 590 96 590 c 256
EndSplineSet
EndChar

StartChar: uni030A
Encoding: 778 778 478
Width: 600
VWidth: 0
Flags: HW
LayerCount: 2
Fore
SplineSet
-1 605 m 256
 33 605 50 623 50 657 c 256
 50 692 33 709 -1 709 c 256
 -34 709 -51 692 -51 657 c 256
 -51 623 -34 605 -1 605 c 256
-1 565 m 256
 -66 565 -93 604 -93 657 c 256
 -93 713 -65 749 -1 749 c 256
 63 749 92 713 92 657 c 256
 92 601 63 565 -1 565 c 256
EndSplineSet
EndChar

StartChar: uni030C
Encoding: 780 780 479
Width: 600
VWidth: 0
Flags: HW
LayerCount: 2
Fore
SplineSet
-52 590 m 257
 -163 766 l 257
 -90 766 l 257
 0 650 l 257
 90 766 l 257
 163 766 l 257
 51 590 l 257
 -52 590 l 257
EndSplineSet
EndChar

StartChar: uni030F
Encoding: 783 783 480
Width: 270
VWidth: 0
Flags: HW
LayerCount: 2
Fore
SplineSet
1 519 m 1280
-92 766 m 257
 23 766 l 257
 110 590 l 257
 41 590 l 257
 -92 766 l 257
-262 766 m 257
 -147 766 l 257
 -60 590 l 257
 -129 590 l 257
 -262 766 l 257
EndSplineSet
EndChar

StartChar: uni0311
Encoding: 785 785 481
Width: 270
VWidth: 0
Flags: HW
LayerCount: 2
Fore
SplineSet
-1 519 m 1280
-160 589 m 257
 -160 668 -100 727 -1 727 c 256
 100 727 160 670 160 589 c 257
 98 589 l 257
 90 630 64 650 -2 650 c 256
 -57 650 -89 629 -98 589 c 257
 -160 589 l 257
EndSplineSet
EndChar

StartChar: uni0312
Encoding: 786 786 482
Width: 270
VWidth: 0
Flags: HW
LayerCount: 2
Fore
SplineSet
138 519 m 1280
182 847 m 257
 158 817 141 759 141 711 c 257
 180 711 195 695 195 656 c 256
 195 620 179 601 136 601 c 256
 93 601 76 623 76 666 c 256
 76 746 105 816 131 847 c 257
 182 847 l 257
EndSplineSet
EndChar

StartChar: uni0326
Encoding: 806 806 483
Width: 600
VWidth: 0
Flags: HW
LayerCount: 2
Fore
SplineSet
135 0 m 1280
91 -259 m 257
 110 -234 131 -207 131 -180 c 257
 92 -180 76 -165 76 -126 c 256
 76 -90 91 -70 134 -70 c 256
 177 -70 195 -91 195 -134 c 256
 195 -193 166 -229 142 -259 c 257
 91 -259 l 257
EndSplineSet
EndChar

StartChar: uni0326.alt
Encoding: 65548 -1 484
Width: 600
VWidth: 0
Flags: HW
LayerCount: 2
Fore
SplineSet
137 569 m 256
 94 569 76 590 76 633 c 256
 76 673 88 708 129 758 c 257
 180 758 l 257
 161 732 140 706 140 679 c 257
 179 679 195 664 195 625 c 256
 195 589 180 569 137 569 c 256
EndSplineSet
EndChar

StartChar: afii61289
Encoding: 8467 8467 487
Width: 521
VWidth: 0
Flags: HW
LayerCount: 2
Fore
SplineSet
301 -14 m 256
 217 -14 170 43 170 144 c 258
 170 239 l 257
 110 178 l 257
 76 224 l 257
 170 320 l 257
 170 539 l 258
 170 662 221 728 306 728 c 256
 378 728 412 673 412 616 c 256
 412 530 380 460 259 312 c 257
 259 150 l 258
 259 82 287 57 324 57 c 256
 361 57 392 83 412 105 c 257
 444 53 l 257
 405 12 352 -14 301 -14 c 256
259 400 m 257
 313 462 349 543 349 603 c 256
 349 634 337 657 312 657 c 256
 276 657 259 622 259 550 c 258
 259 400 l 257
EndSplineSet
EndChar

StartChar: v
Encoding: 118 118 491
Width: 496
VWidth: 0
Flags: HW
LayerCount: 2
Fore
SplineSet
210 0 m 257
 24 519 l 257
 118 519 l 257
 235 165 l 257
 250 116 l 257
 253 116 l 257
 268 165 l 257
 383 519 l 257
 475 519 l 257
 289 0 l 257
 210 0 l 257
EndSplineSet
EndChar

StartChar: w
Encoding: 119 119 492
Width: 735
VWidth: 0
Flags: HW
LayerCount: 2
Fore
SplineSet
370 519 m 1280
165 0 m 257
 27 519 l 257
 118 519 l 257
 195 197 l 257
 209 125 l 257
 211 125 l 257
 231 196 l 257
 332 519 l 257
 405 519 l 257
 507 196 l 257
 528 122 l 257
 530 122 l 257
 532 132 544 188 546 197 c 256
 556 243 607 474 618 519 c 257
 707 519 l 257
 570 0 l 257
 492 0 l 257
 390 320 l 257
 367 400 l 257
 366 400 l 257
 343 320 l 257
 242 0 l 257
 165 0 l 257
EndSplineSet
EndChar

StartChar: x
Encoding: 120 120 497
Width: 497
VWidth: 0
Flags: HW
LayerCount: 2
Fore
SplineSet
25 0 m 257
 198 259 l 257
 28 519 l 257
 134 519 l 257
 250 324 l 257
 367 519 l 257
 470 519 l 257
 299 262 l 257
 472 0 l 257
 365 0 l 257
 247 197 l 257
 127 0 l 257
 25 0 l 257
EndSplineSet
EndChar

StartChar: y
Encoding: 121 121 498
Width: 506
VWidth: 0
Flags: HW
LayerCount: 2
Fore
SplineSet
264 519 m 1280
97 -201 m 256
 73 -201 36 -195 19 -189 c 257
 35 -117 l 257
 48 -123 80 -127 97 -127 c 256
 137 -127 167 -88 190 -27 c 257
 210 21 l 257
 19 519 l 257
 116 519 l 257
 225 216 l 257
 252 134 l 257
 254 134 l 257
 391 519 l 257
 486 519 l 257
 266 -56 l 257
 227 -152 182 -201 97 -201 c 256
EndSplineSet
EndChar

StartChar: yen
Encoding: 165 165 502
Width: 617
VWidth: 0
Flags: HW
LayerCount: 2
Fore
SplineSet
263 0 m 257
 263 180 l 257
 67 180 l 257
 67 239 l 257
 263 239 l 257
 263 286 l 257
 247 312 l 257
 67 312 l 257
 67 371 l 257
 213 371 l 257
 32 676 l 257
 134 676 l 257
 310 371 l 257
 488 676 l 257
 585 676 l 257
 402 371 l 257
 550 371 l 257
 550 312 l 257
 367 312 l 257
 353 290 l 257
 353 239 l 257
 550 239 l 257
 550 180 l 257
 353 180 l 257
 353 0 l 257
 263 0 l 257
EndSplineSet
EndChar

StartChar: z
Encoding: 122 122 506
Width: 474
VWidth: 0
Flags: HW
LayerCount: 2
Fore
SplineSet
260 519 m 1280
42 0 m 257
 42 65 l 257
 317 446 l 257
 47 446 l 257
 47 519 l 257
 425 519 l 257
 425 456 l 257
 148 73 l 257
 436 73 l 257
 436 0 l 257
 42 0 l 257
EndSplineSet
EndChar

StartChar: zero
Encoding: 48 48 510
Width: 573
VWidth: 0
Flags: HW
LayerCount: 2
Fore
SplineSet
286.5 64 m 256
 387.5 64 428.5 145 429.5 298 c 257
 429.5 386 l 258
 429.5 541 388.5 624 286.5 624 c 256
 185.5 624 142.5 541 142.5 386 c 258
 142.5 297 l 257
 143.5 145 186.5 64 286.5 64 c 256
286.5 -13 m 256
 124.5 -13 48.5 97 47.5 304 c 257
 47.5 378 l 258
 47.5 588 123.5 701 286.5 701 c 256
 450.5 701 525.5 588 525.5 378 c 258
 525.5 306 l 257
 524.5 99 448.5 -13 286.5 -13 c 256
EndSplineSet
EndChar

